<svg xmlns="http://www.w3.org/2000/svg" xmlns:xlink="http://www.w3.org/1999/xlink" width="150" zoomAndPan="magnify" viewBox="0 0 112.5 41.25" height="55" preserveAspectRatio="xMidYMid meet" version="1.0"><defs><g/><clipPath id="f968fa046f"><path d="M 13 0.078125 L 23 0.078125 L 23 16 L 13 16 Z M 13 0.078125 " clip-rule="nonzero"/></clipPath><clipPath id="cbe3f333fc"><path d="M 49 0.078125 L 53 0.078125 L 53 16 L 49 16 Z M 49 0.078125 " clip-rule="nonzero"/></clipPath><clipPath id="2dfe5cecfc"><rect x="0" width="104" y="0" height="22"/></clipPath><clipPath id="c503f71802"><path d="M 84 23 L 90.328125 23 L 90.328125 29.457031 L 84 29.457031 Z M 84 23 " clip-rule="nonzero"/></clipPath><clipPath id="214bcefec8"><path d="M 78.542969 17.671875 L 90 17.671875 L 90 29 L 78.542969 29 Z M 78.542969 17.671875 " clip-rule="nonzero"/></clipPath><clipPath id="0934447606"><path d="M 82.101562 21.128906 L 82.324219 21.128906 L 82.324219 21.347656 L 82.101562 21.347656 Z M 82.101562 21.128906 " clip-rule="nonzero"/></clipPath><clipPath id="abf11c737f"><path d="M 82.214844 21.128906 C 82.152344 21.128906 82.101562 21.179688 82.101562 21.238281 C 82.101562 21.300781 82.152344 21.347656 82.214844 21.347656 C 82.273438 21.347656 82.324219 21.300781 82.324219 21.238281 C 82.324219 21.179688 82.273438 21.128906 82.214844 21.128906 Z M 82.214844 21.128906 " clip-rule="nonzero"/></clipPath><clipPath id="7a24e6538b"><path d="M 82.214844 21.128906 C 82.152344 21.128906 82.101562 21.179688 82.101562 21.238281 C 82.101562 21.300781 82.152344 21.347656 82.214844 21.347656 C 82.273438 21.347656 82.324219 21.300781 82.324219 21.238281 C 82.324219 21.179688 82.273438 21.128906 82.214844 21.128906 Z M 82.214844 21.128906 " clip-rule="nonzero"/></clipPath><clipPath id="359d81fa2d"><path d="M 74.421875 17.953125 L 78.53125 17.953125 L 78.53125 22.0625 L 74.421875 22.0625 Z M 74.421875 17.953125 " clip-rule="nonzero"/></clipPath><clipPath id="378b7e1619"><path d="M 76.476562 17.953125 C 75.34375 17.953125 74.421875 18.875 74.421875 20.007812 C 74.421875 21.144531 75.34375 22.0625 76.476562 22.0625 C 77.613281 22.0625 78.53125 21.144531 78.53125 20.007812 C 78.53125 18.875 77.613281 17.953125 76.476562 17.953125 Z M 76.476562 17.953125 " clip-rule="nonzero"/></clipPath><clipPath id="9ddb941e1c"><path d="M 0.421875 0.953125 L 4.53125 0.953125 L 4.53125 5.0625 L 0.421875 5.0625 Z M 0.421875 0.953125 " clip-rule="nonzero"/></clipPath><clipPath id="dcfe57acc9"><path d="M 2.476562 0.953125 C 1.34375 0.953125 0.421875 1.875 0.421875 3.007812 C 0.421875 4.144531 1.34375 5.0625 2.476562 5.0625 C 3.613281 5.0625 4.53125 4.144531 4.53125 3.007812 C 4.53125 1.875 3.613281 0.953125 2.476562 0.953125 Z M 2.476562 0.953125 " clip-rule="nonzero"/></clipPath><clipPath id="bfa63024a7"><rect x="0" width="5" y="0" height="6"/></clipPath><clipPath id="815d4925d0"><path d="M 55 1 L 89 1 L 89 40.511719 L 55 40.511719 Z M 55 1 " clip-rule="nonzero"/></clipPath></defs><g transform="matrix(1, 0, 0, 1, 4, 11)"><g clip-path="url(#2dfe5cecfc)"><g fill="#000000" fill-opacity="1"><g transform="translate(1.604016, 15.505581)"><g><path d="M 0.140625 -11.46875 L 0.140625 -14.328125 L 10.21875 -14.328125 L 10.21875 -11.46875 L 6.8125 -11.46875 L 6.8125 0 L 3.546875 0 L 3.546875 -11.46875 Z M 0.140625 -11.46875 "/></g></g></g><g clip-path="url(#f968fa046f)"><g fill="#000000" fill-opacity="1"><g transform="translate(12.129198, 15.505581)"><g><path d="M 1.046875 0 L 1.046875 -14.9375 L 4.125 -14.9375 L 4.125 -7.96875 L 4.15625 -7.96875 C 4.945312 -8.769531 5.796875 -9.171875 6.703125 -9.171875 C 7.140625 -9.171875 7.578125 -9.113281 8.015625 -9 C 8.453125 -8.882812 8.867188 -8.703125 9.265625 -8.453125 C 9.671875 -8.210938 9.992188 -7.867188 10.234375 -7.421875 C 10.484375 -6.984375 10.609375 -6.46875 10.609375 -5.875 L 10.609375 0 L 7.546875 0 L 7.546875 -5.03125 C 7.546875 -5.5 7.394531 -5.90625 7.09375 -6.25 C 6.800781 -6.601562 6.414062 -6.78125 5.9375 -6.78125 C 5.476562 -6.78125 5.0625 -6.597656 4.6875 -6.234375 C 4.3125 -5.878906 4.125 -5.476562 4.125 -5.03125 L 4.125 0 Z M 1.046875 0 "/></g></g></g></g><g fill="#000000" fill-opacity="1"><g transform="translate(23.783304, 15.505581)"><g><path d="M 10.0625 -4.03125 L 3.59375 -4.03125 C 3.59375 -3.40625 3.796875 -2.941406 4.203125 -2.640625 C 4.609375 -2.335938 5.050781 -2.1875 5.53125 -2.1875 C 6.019531 -2.1875 6.410156 -2.253906 6.703125 -2.390625 C 6.992188 -2.523438 7.328125 -2.785156 7.703125 -3.171875 L 9.921875 -2.0625 C 8.992188 -0.507812 7.453125 0.265625 5.296875 0.265625 C 3.953125 0.265625 2.800781 -0.191406 1.84375 -1.109375 C 0.882812 -2.035156 0.40625 -3.144531 0.40625 -4.4375 C 0.40625 -5.738281 0.882812 -6.851562 1.84375 -7.78125 C 2.800781 -8.707031 3.953125 -9.171875 5.296875 -9.171875 C 6.710938 -9.171875 7.863281 -8.757812 8.75 -7.9375 C 9.632812 -7.125 10.078125 -5.960938 10.078125 -4.453125 C 10.078125 -4.242188 10.070312 -4.101562 10.0625 -4.03125 Z M 3.6875 -5.734375 L 7.078125 -5.734375 C 7.003906 -6.191406 6.816406 -6.546875 6.515625 -6.796875 C 6.222656 -7.046875 5.847656 -7.171875 5.390625 -7.171875 C 4.878906 -7.171875 4.472656 -7.035156 4.171875 -6.765625 C 3.867188 -6.503906 3.707031 -6.160156 3.6875 -5.734375 Z M 3.6875 -5.734375 "/></g></g></g><g fill="#000000" fill-opacity="1"><g transform="translate(34.43006, 15.505581)"><g><path d="M 8.328125 -14.328125 L 14.109375 0 L 10.59375 0 L 9.53125 -2.859375 L 4.078125 -2.859375 L 3.015625 0 L -0.484375 0 L 5.296875 -14.328125 Z M 8.421875 -5.734375 L 6.828125 -9.90625 L 6.796875 -9.90625 L 5.1875 -5.734375 Z M 8.421875 -5.734375 "/></g></g></g><g clip-path="url(#cbe3f333fc)"><g fill="#000000" fill-opacity="1"><g transform="translate(48.22044, 15.505581)"><g><path d="M 1.046875 0 L 1.046875 -14.9375 L 4.125 -14.9375 L 4.125 0 Z M 1.046875 0 "/></g></g></g></g><g fill="#000000" fill-opacity="1"><g transform="translate(53.552564, 15.505581)"><g><path d="M 0.640625 2.1875 L 3.15625 0.953125 C 3.625 1.722656 4.429688 2.109375 5.578125 2.109375 C 6.109375 2.109375 6.601562 1.9375 7.0625 1.59375 C 7.519531 1.25 7.75 0.722656 7.75 0.015625 L 7.75 -0.640625 C 7.207031 -0.0351562 6.234375 0.265625 4.828125 0.265625 C 3.546875 0.265625 2.488281 -0.1875 1.65625 -1.09375 C 0.820312 -2.007812 0.40625 -3.125 0.40625 -4.4375 C 0.40625 -5.757812 0.820312 -6.878906 1.65625 -7.796875 C 2.488281 -8.710938 3.546875 -9.171875 4.828125 -9.171875 C 5.972656 -9.171875 6.929688 -8.816406 7.703125 -8.109375 L 7.75 -8.109375 L 7.75 -8.90625 L 10.828125 -8.90625 L 10.828125 0.25 C 10.828125 1.695312 10.34375 2.8125 9.375 3.59375 C 8.414062 4.382812 7.148438 4.78125 5.578125 4.78125 C 3.023438 4.78125 1.378906 3.914062 0.640625 2.1875 Z M 4.265625 -5.953125 C 3.867188 -5.566406 3.671875 -5.066406 3.671875 -4.453125 C 3.671875 -3.835938 3.859375 -3.332031 4.234375 -2.9375 C 4.617188 -2.550781 5.125 -2.359375 5.75 -2.359375 C 6.351562 -2.359375 6.847656 -2.554688 7.234375 -2.953125 C 7.617188 -3.347656 7.8125 -3.847656 7.8125 -4.453125 C 7.8125 -5.066406 7.613281 -5.566406 7.21875 -5.953125 C 6.820312 -6.347656 6.332031 -6.546875 5.75 -6.546875 C 5.15625 -6.546875 4.660156 -6.347656 4.265625 -5.953125 Z M 4.265625 -5.953125 "/></g></g></g><g fill="#000000" fill-opacity="1"><g transform="translate(65.597929, 15.505581)"><g/></g></g><g fill="#000000" fill-opacity="1"><g transform="translate(70.513228, 15.505581)"><g/></g></g><g fill="#000000" fill-opacity="1"><g transform="translate(75.428527, 15.505581)"><g/></g></g><g fill="#000000" fill-opacity="1"><g transform="translate(80.343826, 15.505581)"><g/></g></g><g fill="#000000" fill-opacity="1"><g transform="translate(85.263119, 15.505581)"><g><path d="M 6.515625 0 L 4.4375 0 L -0.34375 -8.90625 L 3.203125 -8.90625 L 5.375 -4.09375 L 7.5 -8.90625 L 9.625 -8.90625 L 11.765625 -4.09375 L 13.9375 -8.90625 L 17.484375 -8.90625 L 12.703125 0 L 10.609375 0 L 8.5625 -4.609375 Z M 6.515625 0 "/></g></g></g></g></g><g clip-path="url(#c503f71802)"><path fill="#3f7bed" d="M 90.085938 25.703125 C 90.085938 25.8125 90.015625 25.90625 89.914062 25.941406 L 87.578125 26.707031 L 86.8125 29.042969 C 86.777344 29.140625 86.683594 29.214844 86.574219 29.214844 C 86.464844 29.214844 86.375 29.148438 86.339844 29.054688 L 84.332031 23.785156 C 84.320312 23.757812 84.3125 23.726562 84.3125 23.695312 C 84.3125 23.554688 84.425781 23.441406 84.566406 23.441406 C 84.597656 23.441406 84.628906 23.449219 84.65625 23.460938 L 89.925781 25.46875 C 90.019531 25.503906 90.085938 25.59375 90.085938 25.703125 Z M 90.085938 25.703125 " fill-opacity="1" fill-rule="nonzero"/></g><g clip-path="url(#214bcefec8)"><path fill="#24262b" d="M 83.832031 28.253906 C 80.917969 28.253906 78.542969 25.878906 78.542969 22.960938 C 78.542969 20.042969 80.917969 17.671875 83.832031 17.671875 C 86.75 17.671875 89.125 20.042969 89.125 22.960938 C 89.125 23.195312 89.109375 23.429688 89.078125 23.648438 C 89.042969 23.914062 88.796875 24.097656 88.535156 24.0625 C 88.273438 24.023438 88.089844 23.78125 88.125 23.519531 C 88.152344 23.339844 88.164062 23.152344 88.164062 22.960938 C 88.164062 20.574219 86.21875 18.632812 83.832031 18.632812 C 81.445312 18.632812 79.503906 20.574219 79.503906 22.960938 C 79.503906 25.347656 81.445312 27.289062 83.832031 27.289062 C 84.023438 27.289062 84.210938 27.277344 84.390625 27.253906 C 84.652344 27.214844 84.898438 27.402344 84.933594 27.664062 C 84.96875 27.929688 84.785156 28.171875 84.519531 28.207031 C 84.296875 28.238281 84.066406 28.253906 83.832031 28.253906 Z M 83.832031 28.253906 " fill-opacity="1" fill-rule="nonzero"/></g><path fill="#24262b" d="M 83.605469 25.839844 C 83.589844 25.839844 83.574219 25.839844 83.558594 25.839844 C 82.066406 25.699219 80.941406 24.460938 80.941406 22.960938 C 80.941406 21.367188 82.238281 20.066406 83.832031 20.066406 C 85.339844 20.066406 86.578125 21.195312 86.710938 22.695312 C 86.734375 22.957031 86.539062 23.191406 86.273438 23.214844 C 86 23.234375 85.777344 23.042969 85.753906 22.78125 C 85.664062 21.78125 84.835938 21.03125 83.832031 21.03125 C 82.769531 21.03125 81.902344 21.894531 81.902344 22.960938 C 81.902344 23.960938 82.652344 24.789062 83.648438 24.878906 C 83.914062 24.90625 84.109375 25.140625 84.082031 25.402344 C 84.058594 25.652344 83.851562 25.839844 83.605469 25.839844 Z M 83.605469 25.839844 " fill-opacity="1" fill-rule="nonzero"/><g clip-path="url(#0934447606)"><g clip-path="url(#abf11c737f)"><g clip-path="url(#7a24e6538b)"><path fill="#24262b" d="M 82.101562 21.128906 L 82.324219 21.128906 L 82.324219 21.347656 L 82.101562 21.347656 Z M 82.101562 21.128906 " fill-opacity="1" fill-rule="nonzero"/></g></g></g><g clip-path="url(#359d81fa2d)"><g clip-path="url(#378b7e1619)"><g transform="matrix(1, 0, 0, 1, 74, 17)"><g clip-path="url(#bfa63024a7)"><g clip-path="url(#9ddb941e1c)"><g clip-path="url(#dcfe57acc9)"><path fill="#3f7bed" d="M 0.421875 0.953125 L 4.53125 0.953125 L 4.53125 5.0625 L 0.421875 5.0625 Z M 0.421875 0.953125 " fill-opacity="1" fill-rule="nonzero"/></g></g></g></g></g></g><g clip-path="url(#815d4925d0)"><path stroke-linecap="butt" transform="matrix(-0.0146907, -0.736461, 0.736461, -0.0146907, 70.724439, 26.986874)" fill="none" stroke-linejoin="miter" d="M 0.000575364 2.002535 L 12.231797 2.002532 " stroke="#000000" stroke-width="4" stroke-opacity="1" stroke-miterlimit="4"/></g></svg>