<svg xmlns="http://www.w3.org/2000/svg" xmlns:xlink="http://www.w3.org/1999/xlink" width="180" zoomAndPan="magnify" viewBox="0 0 135 33.749998" height="45" preserveAspectRatio="xMidYMid meet" version="1.0"><defs><g/><clipPath id="31657a7b40"><path d="M 13 0.195312 L 24 0.195312 L 24 17 L 13 17 Z M 13 0.195312 " clip-rule="nonzero"/></clipPath><clipPath id="4cfc12602e"><path d="M 51 0.195312 L 55 0.195312 L 55 17 L 51 17 Z M 51 0.195312 " clip-rule="nonzero"/></clipPath><clipPath id="0041458fc5"><rect x="0" width="108" y="0" height="24"/></clipPath><clipPath id="726efef64e"><path d="M 107 18 L 112.988281 18 L 112.988281 24.90625 L 107 24.90625 Z M 107 18 " clip-rule="nonzero"/></clipPath><clipPath id="8ee684acb7"><path d="M 101.078125 12.992188 L 112.988281 12.992188 L 112.988281 24 L 101.078125 24 Z M 101.078125 12.992188 " clip-rule="nonzero"/></clipPath><clipPath id="ff80bd32e4"><path d="M 104.78125 16.589844 L 105.007812 16.589844 L 105.007812 16.816406 L 104.78125 16.816406 Z M 104.78125 16.589844 " clip-rule="nonzero"/></clipPath><clipPath id="401530c310"><path d="M 104.894531 16.589844 C 104.832031 16.589844 104.78125 16.640625 104.78125 16.703125 C 104.78125 16.765625 104.832031 16.816406 104.894531 16.816406 C 104.957031 16.816406 105.007812 16.765625 105.007812 16.703125 C 105.007812 16.640625 104.957031 16.589844 104.894531 16.589844 Z M 104.894531 16.589844 " clip-rule="nonzero"/></clipPath><clipPath id="4d9a0c4dfd"><path d="M 104.894531 16.589844 C 104.832031 16.589844 104.78125 16.640625 104.78125 16.703125 C 104.78125 16.765625 104.832031 16.816406 104.894531 16.816406 C 104.957031 16.816406 105.007812 16.765625 105.007812 16.703125 C 105.007812 16.640625 104.957031 16.589844 104.894531 16.589844 Z M 104.894531 16.589844 " clip-rule="nonzero"/></clipPath><clipPath id="255c127cff"><path d="M 96.5 13.289062 L 100.769531 13.289062 L 100.769531 17.558594 L 96.5 17.558594 Z M 96.5 13.289062 " clip-rule="nonzero"/></clipPath><clipPath id="64a7806014"><path d="M 98.636719 13.289062 C 97.457031 13.289062 96.5 14.242188 96.5 15.421875 C 96.5 16.601562 97.457031 17.558594 98.636719 17.558594 C 99.816406 17.558594 100.769531 16.601562 100.769531 15.421875 C 100.769531 14.242188 99.816406 13.289062 98.636719 13.289062 Z M 98.636719 13.289062 " clip-rule="nonzero"/></clipPath><clipPath id="7b52ed5f4d"><path d="M 0.5 0.289062 L 4.769531 0.289062 L 4.769531 4.558594 L 0.5 4.558594 Z M 0.5 0.289062 " clip-rule="nonzero"/></clipPath><clipPath id="20ca6aed8d"><path d="M 2.636719 0.289062 C 1.457031 0.289062 0.5 1.242188 0.5 2.421875 C 0.5 3.601562 1.457031 4.558594 2.636719 4.558594 C 3.816406 4.558594 4.769531 3.601562 4.769531 2.421875 C 4.769531 1.242188 3.816406 0.289062 2.636719 0.289062 Z M 2.636719 0.289062 " clip-rule="nonzero"/></clipPath><clipPath id="9c1fc09805"><rect x="0" width="5" y="0" height="5"/></clipPath><clipPath id="acde7f4b4b"><path d="M 73 0 L 116 0 L 116 33.5 L 73 33.5 Z M 73 0 " clip-rule="nonzero"/></clipPath><clipPath id="5e617396be"><path d="M 3.847656 6.539062 L 21.609375 6.539062 L 21.609375 24.300781 L 3.847656 24.300781 Z M 3.847656 6.539062 " clip-rule="nonzero"/></clipPath></defs><g transform="matrix(1, 0, 0, 1, 24, 6)"><g clip-path="url(#0041458fc5)"><g fill="#000000" fill-opacity="1"><g transform="translate(1.565246, 16.17495)"><g><path d="M 0.140625 -11.921875 L 0.140625 -14.90625 L 10.625 -14.90625 L 10.625 -11.921875 L 7.078125 -11.921875 L 7.078125 0 L 3.6875 0 L 3.6875 -11.921875 Z M 0.140625 -11.921875 "/></g></g></g><g clip-path="url(#31657a7b40)"><g fill="#000000" fill-opacity="1"><g transform="translate(12.504164, 16.17495)"><g><path d="M 1.078125 0 L 1.078125 -15.53125 L 4.28125 -15.53125 L 4.28125 -8.296875 L 4.3125 -8.296875 C 5.144531 -9.117188 6.03125 -9.53125 6.96875 -9.53125 C 7.425781 -9.53125 7.878906 -9.46875 8.328125 -9.34375 C 8.785156 -9.226562 9.222656 -9.046875 9.640625 -8.796875 C 10.054688 -8.546875 10.390625 -8.1875 10.640625 -7.71875 C 10.898438 -7.257812 11.03125 -6.722656 11.03125 -6.109375 L 11.03125 0 L 7.84375 0 L 7.84375 -5.234375 C 7.84375 -5.710938 7.6875 -6.132812 7.375 -6.5 C 7.070312 -6.863281 6.671875 -7.046875 6.171875 -7.046875 C 5.691406 -7.046875 5.253906 -6.859375 4.859375 -6.484375 C 4.472656 -6.109375 4.28125 -5.691406 4.28125 -5.234375 L 4.28125 0 Z M 1.078125 0 "/></g></g></g></g><g fill="#000000" fill-opacity="1"><g transform="translate(24.616384, 16.17495)"><g><path d="M 10.453125 -4.1875 L 3.734375 -4.1875 C 3.734375 -3.539062 3.941406 -3.0625 4.359375 -2.75 C 4.785156 -2.4375 5.25 -2.28125 5.75 -2.28125 C 6.257812 -2.28125 6.664062 -2.347656 6.96875 -2.484375 C 7.269531 -2.617188 7.613281 -2.894531 8 -3.3125 L 10.3125 -2.15625 C 9.351562 -0.539062 7.753906 0.265625 5.515625 0.265625 C 4.109375 0.265625 2.90625 -0.207031 1.90625 -1.15625 C 0.914062 -2.113281 0.421875 -3.265625 0.421875 -4.609375 C 0.421875 -5.960938 0.914062 -7.117188 1.90625 -8.078125 C 2.90625 -9.046875 4.109375 -9.53125 5.515625 -9.53125 C 6.984375 -9.53125 8.175781 -9.101562 9.09375 -8.25 C 10.007812 -7.40625 10.46875 -6.195312 10.46875 -4.625 C 10.46875 -4.40625 10.460938 -4.257812 10.453125 -4.1875 Z M 3.828125 -5.953125 L 7.34375 -5.953125 C 7.28125 -6.441406 7.09375 -6.8125 6.78125 -7.0625 C 6.476562 -7.320312 6.082031 -7.453125 5.59375 -7.453125 C 5.0625 -7.453125 4.640625 -7.3125 4.328125 -7.03125 C 4.015625 -6.757812 3.847656 -6.398438 3.828125 -5.953125 Z M 3.828125 -5.953125 "/></g></g></g><g fill="#000000" fill-opacity="1"><g transform="translate(35.681655, 16.17495)"><g><path d="M 8.65625 -14.90625 L 14.671875 0 L 11.015625 0 L 9.921875 -2.984375 L 4.25 -2.984375 L 3.140625 0 L -0.5 0 L 5.515625 -14.90625 Z M 8.765625 -5.953125 L 7.09375 -10.296875 L 7.0625 -10.296875 L 5.40625 -5.953125 Z M 8.765625 -5.953125 "/></g></g></g><g clip-path="url(#4cfc12602e)"><g fill="#000000" fill-opacity="1"><g transform="translate(50.014123, 16.17495)"><g><path d="M 1.078125 0 L 1.078125 -15.53125 L 4.28125 -15.53125 L 4.28125 0 Z M 1.078125 0 "/></g></g></g></g><g fill="#000000" fill-opacity="1"><g transform="translate(55.555848, 16.17495)"><g><path d="M 0.671875 2.28125 L 3.28125 1 C 3.769531 1.789062 4.609375 2.1875 5.796875 2.1875 C 6.347656 2.1875 6.863281 2.007812 7.34375 1.65625 C 7.820312 1.300781 8.0625 0.753906 8.0625 0.015625 L 8.0625 -0.671875 C 7.488281 -0.046875 6.472656 0.265625 5.015625 0.265625 C 3.679688 0.265625 2.582031 -0.203125 1.71875 -1.140625 C 0.851562 -2.085938 0.421875 -3.25 0.421875 -4.625 C 0.421875 -6 0.851562 -7.160156 1.71875 -8.109375 C 2.582031 -9.054688 3.679688 -9.53125 5.015625 -9.53125 C 6.210938 -9.53125 7.207031 -9.164062 8 -8.4375 L 8.0625 -8.4375 L 8.0625 -9.265625 L 11.25 -9.265625 L 11.25 0.25 C 11.25 1.757812 10.75 2.921875 9.75 3.734375 C 8.75 4.554688 7.429688 4.96875 5.796875 4.96875 C 3.148438 4.96875 1.441406 4.070312 0.671875 2.28125 Z M 4.4375 -6.1875 C 4.019531 -5.78125 3.8125 -5.257812 3.8125 -4.625 C 3.8125 -3.988281 4.007812 -3.46875 4.40625 -3.0625 C 4.800781 -2.65625 5.328125 -2.453125 5.984375 -2.453125 C 6.609375 -2.453125 7.117188 -2.65625 7.515625 -3.0625 C 7.921875 -3.476562 8.125 -4 8.125 -4.625 C 8.125 -5.257812 7.914062 -5.78125 7.5 -6.1875 C 7.082031 -6.601562 6.578125 -6.8125 5.984375 -6.8125 C 5.367188 -6.8125 4.851562 -6.601562 4.4375 -6.1875 Z M 4.4375 -6.1875 "/></g></g></g><g fill="#000000" fill-opacity="1"><g transform="translate(68.074707, 16.17495)"><g/></g></g><g fill="#000000" fill-opacity="1"><g transform="translate(73.183222, 16.17495)"><g/></g></g><g fill="#000000" fill-opacity="1"><g transform="translate(78.291738, 16.17495)"><g/></g></g><g fill="#000000" fill-opacity="1"><g transform="translate(83.400253, 16.17495)"><g/></g></g><g fill="#000000" fill-opacity="1"><g transform="translate(88.51292, 16.17495)"><g><path d="M 6.78125 0 L 4.609375 0 L -0.359375 -9.265625 L 3.328125 -9.265625 L 5.578125 -4.265625 L 7.796875 -9.265625 L 10 -9.265625 L 12.234375 -4.265625 L 14.484375 -9.265625 L 18.171875 -9.265625 L 13.203125 0 L 11.03125 0 L 8.90625 -4.78125 Z M 6.78125 0 "/></g></g></g></g></g><g clip-path="url(#726efef64e)"><path fill="#3f7bed" d="M 113.082031 21.34375 C 113.082031 21.460938 113.003906 21.558594 112.902344 21.59375 L 110.472656 22.386719 L 109.675781 24.816406 C 109.640625 24.921875 109.542969 24.996094 109.429688 24.996094 C 109.316406 24.996094 109.222656 24.925781 109.183594 24.832031 L 107.097656 19.351562 C 107.082031 19.320312 107.078125 19.289062 107.078125 19.257812 C 107.078125 19.113281 107.195312 18.996094 107.339844 18.996094 C 107.375 18.996094 107.40625 19 107.433594 19.011719 L 112.914062 21.101562 C 113.011719 21.136719 113.082031 21.230469 113.082031 21.34375 Z M 113.082031 21.34375 " fill-opacity="1" fill-rule="nonzero"/></g><g clip-path="url(#8ee684acb7)"><path fill="#24262b" d="M 106.578125 23.996094 C 103.546875 23.996094 101.078125 21.527344 101.078125 18.496094 C 101.078125 15.460938 103.546875 12.992188 106.578125 12.992188 C 109.613281 12.992188 112.082031 15.460938 112.082031 18.496094 C 112.082031 18.738281 112.066406 18.980469 112.03125 19.210938 C 111.996094 19.484375 111.742188 19.675781 111.46875 19.636719 C 111.195312 19.601562 111.003906 19.347656 111.042969 19.074219 C 111.066406 18.890625 111.082031 18.695312 111.082031 18.496094 C 111.082031 16.011719 109.0625 13.992188 106.578125 13.992188 C 104.097656 13.992188 102.078125 16.011719 102.078125 18.496094 C 102.078125 20.976562 104.097656 22.996094 106.578125 22.996094 C 106.777344 22.996094 106.972656 22.984375 107.160156 22.957031 C 107.429688 22.917969 107.683594 23.113281 107.722656 23.386719 C 107.757812 23.660156 107.566406 23.910156 107.292969 23.949219 C 107.0625 23.980469 106.820312 23.996094 106.578125 23.996094 Z M 106.578125 23.996094 " fill-opacity="1" fill-rule="nonzero"/></g><path fill="#24262b" d="M 106.339844 21.488281 C 106.324219 21.488281 106.308594 21.488281 106.292969 21.488281 C 104.742188 21.34375 103.570312 20.054688 103.570312 18.496094 C 103.570312 16.835938 104.917969 15.484375 106.578125 15.484375 C 108.144531 15.484375 109.429688 16.660156 109.570312 18.214844 C 109.59375 18.492188 109.390625 18.734375 109.117188 18.757812 C 108.832031 18.78125 108.597656 18.582031 108.574219 18.304688 C 108.480469 17.269531 107.625 16.484375 106.578125 16.484375 C 105.472656 16.484375 104.570312 17.386719 104.570312 18.492188 C 104.570312 19.535156 105.351562 20.394531 106.386719 20.488281 C 106.664062 20.515625 106.863281 20.757812 106.839844 21.035156 C 106.816406 21.292969 106.597656 21.488281 106.339844 21.488281 Z M 106.339844 21.488281 " fill-opacity="1" fill-rule="nonzero"/><g clip-path="url(#ff80bd32e4)"><g clip-path="url(#401530c310)"><g clip-path="url(#4d9a0c4dfd)"><path fill="#24262b" d="M 104.78125 16.589844 L 105.007812 16.589844 L 105.007812 16.816406 L 104.78125 16.816406 Z M 104.78125 16.589844 " fill-opacity="1" fill-rule="nonzero"/></g></g></g><g clip-path="url(#255c127cff)"><g clip-path="url(#64a7806014)"><g transform="matrix(1, 0, 0, 1, 96, 13)"><g clip-path="url(#9c1fc09805)"><g clip-path="url(#7b52ed5f4d)"><g clip-path="url(#20ca6aed8d)"><path fill="#3f7bed" d="M 0.5 0.289062 L 4.769531 0.289062 L 4.769531 4.558594 L 0.5 4.558594 Z M 0.5 0.289062 " fill-opacity="1" fill-rule="nonzero"/></g></g></g></g></g></g><g clip-path="url(#acde7f4b4b)"><path stroke-linecap="butt" transform="matrix(-0.0148478, -0.744337, 0.744337, -0.0148478, 92.620296, 22.680934)" fill="none" stroke-linejoin="miter" d="M -0.000944793 2.499081 L 12.57843 2.498109 " stroke="#000000" stroke-width="5" stroke-opacity="1" stroke-miterlimit="4"/></g><g clip-path="url(#5e617396be)"><path fill="#3f7bed" d="M 5.683594 6.539062 L 19.773438 6.539062 C 20.78125 6.539062 21.609375 7.367188 21.609375 8.378906 L 21.609375 22.464844 C 21.609375 23.476562 20.78125 24.300781 19.773438 24.300781 L 5.683594 24.300781 C 5.3125 24.300781 4.964844 24.1875 4.671875 23.996094 L 14.441406 17.5625 L 16.71875 19.882812 L 17.972656 10.339844 L 8.3125 11.3125 L 10.59375 13.636719 L 3.882812 22.835938 C 3.859375 22.714844 3.847656 22.59375 3.847656 22.464844 L 3.847656 8.378906 C 3.847656 7.367188 4.671875 6.539062 5.683594 6.539062 " fill-opacity="1" fill-rule="evenodd"/></g></svg>