<svg xmlns="http://www.w3.org/2000/svg" xmlns:xlink="http://www.w3.org/1999/xlink" width="250" zoomAndPan="magnify" viewBox="0 0 187.5 33.749998" height="45" preserveAspectRatio="xMidYMid meet" version="1.0"><defs><g/><clipPath id="981085581a"><path d="M 29 1 L 186.5625 1 L 186.5625 33.5 L 29 33.5 Z M 29 1 " clip-rule="nonzero"/></clipPath><clipPath id="ff5ca00891"><path d="M 19 0.191406 L 35 0.191406 L 35 24 L 19 24 Z M 19 0.191406 " clip-rule="nonzero"/></clipPath><clipPath id="dfb8d80d70"><path d="M 74 0.191406 L 80 0.191406 L 80 24 L 74 24 Z M 74 0.191406 " clip-rule="nonzero"/></clipPath><clipPath id="0f05a544ce"><rect x="0" width="158" y="0" height="33"/></clipPath><clipPath id="1c83dd81b8"><path d="M 150 20 L 159.996094 20 L 159.996094 29 L 150 29 Z M 150 20 " clip-rule="nonzero"/></clipPath><clipPath id="4467ce914a"><path d="M 142.125 11.242188 L 159 11.242188 L 159 28 L 142.125 28 Z M 142.125 11.242188 " clip-rule="nonzero"/></clipPath><clipPath id="fb0dd960f4"><path d="M 147.59375 16.554688 L 147.929688 16.554688 L 147.929688 16.890625 L 147.59375 16.890625 Z M 147.59375 16.554688 " clip-rule="nonzero"/></clipPath><clipPath id="837865535b"><path d="M 147.761719 16.554688 C 147.671875 16.554688 147.59375 16.632812 147.59375 16.722656 C 147.59375 16.816406 147.671875 16.890625 147.761719 16.890625 C 147.855469 16.890625 147.929688 16.816406 147.929688 16.722656 C 147.929688 16.632812 147.855469 16.554688 147.761719 16.554688 Z M 147.761719 16.554688 " clip-rule="nonzero"/></clipPath><clipPath id="17211e7af0"><path d="M 147.761719 16.554688 C 147.671875 16.554688 147.59375 16.632812 147.59375 16.722656 C 147.59375 16.816406 147.671875 16.890625 147.761719 16.890625 C 147.855469 16.890625 147.929688 16.816406 147.929688 16.722656 C 147.929688 16.632812 147.855469 16.554688 147.761719 16.554688 Z M 147.761719 16.554688 " clip-rule="nonzero"/></clipPath><clipPath id="af912c2094"><path d="M 135.363281 11.679688 L 141.675781 11.679688 L 141.675781 17.992188 L 135.363281 17.992188 Z M 135.363281 11.679688 " clip-rule="nonzero"/></clipPath><clipPath id="ef47435249"><path d="M 138.519531 11.679688 C 136.777344 11.679688 135.363281 13.09375 135.363281 14.835938 C 135.363281 16.578125 136.777344 17.992188 138.519531 17.992188 C 140.261719 17.992188 141.675781 16.578125 141.675781 14.835938 C 141.675781 13.09375 140.261719 11.679688 138.519531 11.679688 Z M 138.519531 11.679688 " clip-rule="nonzero"/></clipPath><clipPath id="8dada44cbd"><path d="M 0.363281 0.679688 L 6.675781 0.679688 L 6.675781 6.992188 L 0.363281 6.992188 Z M 0.363281 0.679688 " clip-rule="nonzero"/></clipPath><clipPath id="e718d31811"><path d="M 3.519531 0.679688 C 1.777344 0.679688 0.363281 2.09375 0.363281 3.835938 C 0.363281 5.578125 1.777344 6.992188 3.519531 6.992188 C 5.261719 6.992188 6.675781 5.578125 6.675781 3.835938 C 6.675781 2.09375 5.261719 0.679688 3.519531 0.679688 Z M 3.519531 0.679688 " clip-rule="nonzero"/></clipPath><clipPath id="3e3bab3bfa"><rect x="0" width="7" y="0" height="7"/></clipPath><clipPath id="e621c1da59"><path d="M 102 0 L 162 0 L 162 33.5 L 102 33.5 Z M 102 0 " clip-rule="nonzero"/></clipPath><clipPath id="c6560d5198"><path d="M 1.1875 2.730469 L 27.242188 2.730469 L 27.242188 28.789062 L 1.1875 28.789062 Z M 1.1875 2.730469 " clip-rule="nonzero"/></clipPath></defs><g clip-path="url(#981085581a)"><g transform="matrix(1, 0, 0, 1, 29, 1)"><g clip-path="url(#0f05a544ce)"><g fill="#000000" fill-opacity="1"><g transform="translate(1.566533, 23.810108)"><g><path d="M 0.21875 -17.609375 L 0.21875 -22.015625 L 15.6875 -22.015625 L 15.6875 -17.609375 L 10.46875 -17.609375 L 10.46875 0 L 5.4375 0 L 5.4375 -17.609375 Z M 0.21875 -17.609375 "/></g></g></g><g clip-path="url(#ff5ca00891)"><g fill="#000000" fill-opacity="1"><g transform="translate(17.727678, 23.810108)"><g><path d="M 1.59375 0 L 1.59375 -22.953125 L 6.328125 -22.953125 L 6.328125 -12.25 L 6.375 -12.25 C 7.601562 -13.476562 8.910156 -14.09375 10.296875 -14.09375 C 10.972656 -14.09375 11.644531 -14.003906 12.3125 -13.828125 C 12.976562 -13.648438 13.617188 -13.375 14.234375 -13 C 14.847656 -12.625 15.347656 -12.09375 15.734375 -11.40625 C 16.117188 -10.71875 16.3125 -9.921875 16.3125 -9.015625 L 16.3125 0 L 11.578125 0 L 11.578125 -7.734375 C 11.578125 -8.453125 11.347656 -9.078125 10.890625 -9.609375 C 10.441406 -10.140625 9.851562 -10.40625 9.125 -10.40625 C 8.414062 -10.40625 7.769531 -10.128906 7.1875 -9.578125 C 6.613281 -9.023438 6.328125 -8.410156 6.328125 -7.734375 L 6.328125 0 Z M 1.59375 0 "/></g></g></g></g><g fill="#000000" fill-opacity="1"><g transform="translate(35.622258, 23.810108)"><g><path d="M 15.453125 -6.1875 L 5.53125 -6.1875 C 5.53125 -5.226562 5.835938 -4.515625 6.453125 -4.046875 C 7.078125 -3.585938 7.753906 -3.359375 8.484375 -3.359375 C 9.253906 -3.359375 9.859375 -3.457031 10.296875 -3.65625 C 10.742188 -3.863281 11.253906 -4.273438 11.828125 -4.890625 L 15.234375 -3.171875 C 13.816406 -0.785156 11.453125 0.40625 8.140625 0.40625 C 6.078125 0.40625 4.304688 -0.300781 2.828125 -1.71875 C 1.347656 -3.132812 0.609375 -4.835938 0.609375 -6.828125 C 0.609375 -8.828125 1.347656 -10.535156 2.828125 -11.953125 C 4.304688 -13.378906 6.078125 -14.09375 8.140625 -14.09375 C 10.304688 -14.09375 12.070312 -13.460938 13.4375 -12.203125 C 14.800781 -10.953125 15.484375 -9.160156 15.484375 -6.828125 C 15.484375 -6.515625 15.472656 -6.300781 15.453125 -6.1875 Z M 5.65625 -8.8125 L 10.859375 -8.8125 C 10.753906 -9.519531 10.472656 -10.0625 10.015625 -10.4375 C 9.566406 -10.820312 8.984375 -11.015625 8.265625 -11.015625 C 7.484375 -11.015625 6.863281 -10.8125 6.40625 -10.40625 C 5.945312 -10 5.695312 -9.46875 5.65625 -8.8125 Z M 5.65625 -8.8125 "/></g></g></g><g fill="#000000" fill-opacity="1"><g transform="translate(51.970077, 23.810108)"><g><path d="M 12.78125 -22.015625 L 21.671875 0 L 16.28125 0 L 14.65625 -4.40625 L 6.265625 -4.40625 L 4.640625 0 L -0.75 0 L 8.140625 -22.015625 Z M 12.9375 -8.8125 L 10.484375 -15.21875 L 10.4375 -15.21875 L 7.984375 -8.8125 Z M 12.9375 -8.8125 "/></g></g></g><g clip-path="url(#dfb8d80d70)"><g fill="#000000" fill-opacity="1"><g transform="translate(73.14485, 23.810108)"><g><path d="M 1.59375 0 L 1.59375 -22.953125 L 6.328125 -22.953125 L 6.328125 0 Z M 1.59375 0 "/></g></g></g></g><g fill="#000000" fill-opacity="1"><g transform="translate(81.332188, 23.810108)"><g><path d="M 0.984375 3.359375 L 4.859375 1.46875 C 5.566406 2.644531 6.800781 3.234375 8.5625 3.234375 C 9.382812 3.234375 10.144531 2.96875 10.84375 2.4375 C 11.550781 1.914062 11.90625 1.113281 11.90625 0.03125 L 11.90625 -0.984375 C 11.0625 -0.0546875 9.566406 0.40625 7.421875 0.40625 C 5.441406 0.40625 3.8125 -0.289062 2.53125 -1.6875 C 1.25 -3.09375 0.609375 -4.804688 0.609375 -6.828125 C 0.609375 -8.859375 1.25 -10.578125 2.53125 -11.984375 C 3.8125 -13.390625 5.441406 -14.09375 7.421875 -14.09375 C 9.179688 -14.09375 10.648438 -13.550781 11.828125 -12.46875 L 11.90625 -12.46875 L 11.90625 -13.6875 L 16.625 -13.6875 L 16.625 0.375 C 16.625 2.59375 15.882812 4.304688 14.40625 5.515625 C 12.9375 6.734375 10.988281 7.34375 8.5625 7.34375 C 4.65625 7.34375 2.128906 6.015625 0.984375 3.359375 Z M 6.546875 -9.15625 C 5.929688 -8.550781 5.625 -7.773438 5.625 -6.828125 C 5.625 -5.890625 5.914062 -5.117188 6.5 -4.515625 C 7.09375 -3.921875 7.867188 -3.625 8.828125 -3.625 C 9.753906 -3.625 10.515625 -3.925781 11.109375 -4.53125 C 11.710938 -5.132812 12.015625 -5.898438 12.015625 -6.828125 C 12.015625 -7.773438 11.707031 -8.550781 11.09375 -9.15625 C 10.476562 -9.757812 9.722656 -10.0625 8.828125 -10.0625 C 7.921875 -10.0625 7.160156 -9.757812 6.546875 -9.15625 Z M 6.546875 -9.15625 "/></g></g></g><g fill="#000000" fill-opacity="1"><g transform="translate(99.827535, 23.810108)"><g/></g></g><g fill="#000000" fill-opacity="1"><g transform="translate(107.374851, 23.810108)"><g/></g></g><g fill="#000000" fill-opacity="1"><g transform="translate(114.922166, 23.810108)"><g/></g></g><g fill="#000000" fill-opacity="1"><g transform="translate(122.469481, 23.810108)"><g/></g></g><g fill="#000000" fill-opacity="1"><g transform="translate(130.022928, 23.810108)"><g><path d="M 10 0 L 6.8125 0 L -0.53125 -13.6875 L 4.90625 -13.6875 L 8.25 -6.296875 L 11.53125 -13.6875 L 14.78125 -13.6875 L 18.0625 -6.296875 L 21.40625 -13.6875 L 26.84375 -13.6875 L 19.515625 0 L 16.3125 0 L 13.15625 -7.078125 Z M 10 0 "/></g></g></g></g></g></g><g clip-path="url(#1c83dd81b8)"><path fill="#3f7bed" d="M 159.855469 23.578125 C 159.855469 23.746094 159.742188 23.894531 159.589844 23.941406 L 156 25.117188 L 154.824219 28.707031 C 154.773438 28.859375 154.628906 28.972656 154.460938 28.972656 C 154.292969 28.972656 154.15625 28.867188 154.101562 28.726562 L 151.019531 20.632812 C 151 20.589844 150.992188 20.542969 150.992188 20.492188 C 150.992188 20.28125 151.164062 20.109375 151.375 20.109375 C 151.425781 20.109375 151.472656 20.117188 151.515625 20.136719 L 159.609375 23.21875 C 159.75 23.273438 159.855469 23.410156 159.855469 23.578125 Z M 159.855469 23.578125 " fill-opacity="1" fill-rule="nonzero"/></g><g clip-path="url(#4467ce914a)"><path fill="#24262b" d="M 150.253906 27.496094 C 145.773438 27.496094 142.125 23.847656 142.125 19.371094 C 142.125 14.890625 145.773438 11.242188 150.253906 11.242188 C 154.730469 11.242188 158.378906 14.890625 158.378906 19.371094 C 158.378906 19.730469 158.355469 20.085938 158.304688 20.425781 C 158.25 20.832031 157.878906 21.113281 157.476562 21.058594 C 157.070312 21.003906 156.789062 20.628906 156.84375 20.226562 C 156.882812 19.953125 156.898438 19.664062 156.898438 19.371094 C 156.898438 15.703125 153.917969 12.722656 150.253906 12.722656 C 146.585938 12.722656 143.605469 15.703125 143.605469 19.371094 C 143.605469 23.035156 146.585938 26.015625 150.253906 26.015625 C 150.542969 26.015625 150.832031 26 151.109375 25.960938 C 151.511719 25.902344 151.886719 26.1875 151.941406 26.59375 C 151.996094 26.996094 151.710938 27.367188 151.308594 27.425781 C 150.964844 27.472656 150.609375 27.496094 150.253906 27.496094 Z M 150.253906 27.496094 " fill-opacity="1" fill-rule="nonzero"/></g><path fill="#24262b" d="M 149.902344 23.789062 C 149.878906 23.789062 149.855469 23.789062 149.832031 23.789062 C 147.539062 23.574219 145.808594 21.675781 145.808594 19.367188 C 145.808594 16.917969 147.800781 14.925781 150.25 14.925781 C 152.566406 14.925781 154.464844 16.660156 154.671875 18.957031 C 154.707031 19.363281 154.40625 19.722656 154 19.761719 C 153.582031 19.789062 153.234375 19.496094 153.199219 19.089844 C 153.0625 17.558594 151.792969 16.402344 150.25 16.402344 C 148.617188 16.402344 147.285156 17.734375 147.285156 19.367188 C 147.285156 20.90625 148.441406 22.171875 149.96875 22.316406 C 150.375 22.355469 150.675781 22.714844 150.636719 23.121094 C 150.601562 23.503906 150.277344 23.789062 149.902344 23.789062 Z M 149.902344 23.789062 " fill-opacity="1" fill-rule="nonzero"/><g clip-path="url(#fb0dd960f4)"><g clip-path="url(#837865535b)"><g clip-path="url(#17211e7af0)"><path fill="#24262b" d="M 147.59375 16.554688 L 147.929688 16.554688 L 147.929688 16.890625 L 147.59375 16.890625 Z M 147.59375 16.554688 " fill-opacity="1" fill-rule="nonzero"/></g></g></g><g clip-path="url(#af912c2094)"><g clip-path="url(#ef47435249)"><g transform="matrix(1, 0, 0, 1, 135, 11)"><g clip-path="url(#3e3bab3bfa)"><g clip-path="url(#8dada44cbd)"><g clip-path="url(#e718d31811)"><path fill="#3f7bed" d="M 0.363281 0.679688 L 6.675781 0.679688 L 6.675781 6.992188 L 0.363281 6.992188 Z M 0.363281 0.679688 " fill-opacity="1" fill-rule="nonzero"/></g></g></g></g></g></g><g clip-path="url(#e621c1da59)"><path stroke-linecap="butt" transform="matrix(-0.0148478, -0.744337, 0.744337, -0.0148478, 129.784568, 25.561586)" fill="none" stroke-linejoin="miter" d="M 0.00240257 3.501226 L 18.580214 3.499206 " stroke="#000000" stroke-width="7" stroke-opacity="1" stroke-miterlimit="4"/></g><g clip-path="url(#c6560d5198)"><path fill="#3f7bed" d="M 3.902344 2.730469 L 24.714844 2.730469 C 26.207031 2.730469 27.429688 3.953125 27.429688 5.445312 L 27.429688 26.257812 C 27.429688 27.753906 26.207031 28.972656 24.714844 28.972656 L 3.902344 28.972656 C 3.347656 28.972656 2.835938 28.808594 2.40625 28.523438 L 16.839844 19.015625 L 20.203125 22.449219 L 22.058594 8.34375 L 7.785156 9.78125 L 11.152344 13.21875 L 1.242188 26.808594 C 1.203125 26.628906 1.1875 26.445312 1.1875 26.257812 L 1.1875 5.445312 C 1.1875 3.953125 2.40625 2.730469 3.902344 2.730469 " fill-opacity="1" fill-rule="evenodd"/></g></svg>