<svg xmlns="http://www.w3.org/2000/svg" xmlns:xlink="http://www.w3.org/1999/xlink" width="168" zoomAndPan="magnify" viewBox="0 0 126 41.25" height="55" preserveAspectRatio="xMidYMid meet" version="1.0"><defs><g/><clipPath id="0a47029d46"><path d="M 21 9 L 124.875 9 L 124.875 32 L 21 32 Z M 21 9 " clip-rule="nonzero"/></clipPath><clipPath id="b08163a5a2"><path d="M 12 0.191406 L 23 0.191406 L 23 16 L 12 16 Z M 12 0.191406 " clip-rule="nonzero"/></clipPath><clipPath id="9978152f0a"><path d="M 49 0.191406 L 53 0.191406 L 53 16 L 49 16 Z M 49 0.191406 " clip-rule="nonzero"/></clipPath><clipPath id="ca2e80c7a0"><path d="M 85 6 L 103.875 6 L 103.875 16 L 85 16 Z M 85 6 " clip-rule="nonzero"/></clipPath><clipPath id="d585bbe98e"><rect x="0" width="104" y="0" height="23"/></clipPath><clipPath id="42b280d1dd"><path d="M 101 21 L 107.425781 21 L 107.425781 27.671875 L 101 27.671875 Z M 101 21 " clip-rule="nonzero"/></clipPath><clipPath id="e1fc149fa7"><path d="M 95.636719 15.886719 L 107 15.886719 L 107 27 L 95.636719 27 Z M 95.636719 15.886719 " clip-rule="nonzero"/></clipPath><clipPath id="54a8a7fda6"><path d="M 99.234375 19.378906 L 99.457031 19.378906 L 99.457031 19.601562 L 99.234375 19.601562 Z M 99.234375 19.378906 " clip-rule="nonzero"/></clipPath><clipPath id="b2f0270b59"><path d="M 99.34375 19.378906 C 99.285156 19.378906 99.234375 19.429688 99.234375 19.488281 C 99.234375 19.550781 99.285156 19.601562 99.34375 19.601562 C 99.40625 19.601562 99.457031 19.550781 99.457031 19.488281 C 99.457031 19.429688 99.40625 19.378906 99.34375 19.378906 Z M 99.34375 19.378906 " clip-rule="nonzero"/></clipPath><clipPath id="574014be0b"><path d="M 99.34375 19.378906 C 99.285156 19.378906 99.234375 19.429688 99.234375 19.488281 C 99.234375 19.550781 99.285156 19.601562 99.34375 19.601562 C 99.40625 19.601562 99.457031 19.550781 99.457031 19.488281 C 99.457031 19.429688 99.40625 19.378906 99.34375 19.378906 Z M 99.34375 19.378906 " clip-rule="nonzero"/></clipPath><clipPath id="1b6689d227"><path d="M 91.1875 16.171875 L 95.339844 16.171875 L 95.339844 20.324219 L 91.1875 20.324219 Z M 91.1875 16.171875 " clip-rule="nonzero"/></clipPath><clipPath id="97158ba9d9"><path d="M 93.265625 16.171875 C 92.117188 16.171875 91.1875 17.101562 91.1875 18.25 C 91.1875 19.394531 92.117188 20.324219 93.265625 20.324219 C 94.410156 20.324219 95.339844 19.394531 95.339844 18.25 C 95.339844 17.101562 94.410156 16.171875 93.265625 16.171875 Z M 93.265625 16.171875 " clip-rule="nonzero"/></clipPath><clipPath id="285ea1aae1"><path d="M 0.1875 0.171875 L 4.339844 0.171875 L 4.339844 4.324219 L 0.1875 4.324219 Z M 0.1875 0.171875 " clip-rule="nonzero"/></clipPath><clipPath id="f7a66cb87f"><path d="M 2.265625 0.171875 C 1.117188 0.171875 0.1875 1.101562 0.1875 2.25 C 0.1875 3.394531 1.117188 4.324219 2.265625 4.324219 C 3.410156 4.324219 4.339844 3.394531 4.339844 2.25 C 4.339844 1.101562 3.410156 0.171875 2.265625 0.171875 Z M 2.265625 0.171875 " clip-rule="nonzero"/></clipPath><clipPath id="b8fa012b41"><rect x="0" width="5" y="0" height="5"/></clipPath><clipPath id="a026dc5dae"><path d="M 2.597656 9.613281 L 19.539062 9.613281 L 19.539062 26.554688 L 2.597656 26.554688 Z M 2.597656 9.613281 " clip-rule="nonzero"/></clipPath></defs><g clip-path="url(#0a47029d46)"><g transform="matrix(1, 0, 0, 1, 21, 9)"><g clip-path="url(#d585bbe98e)"><g fill="#000000" fill-opacity="1"><g transform="translate(1.236911, 15.811099)"><g><path d="M 0.140625 -11.578125 L 0.140625 -14.46875 L 10.3125 -14.46875 L 10.3125 -11.578125 L 6.875 -11.578125 L 6.875 0 L 3.578125 0 L 3.578125 -11.578125 Z M 0.140625 -11.578125 "/></g></g></g><g clip-path="url(#b08163a5a2)"><g fill="#000000" fill-opacity="1"><g transform="translate(11.870194, 15.811099)"><g><path d="M 1.046875 0 L 1.046875 -15.09375 L 4.15625 -15.09375 L 4.15625 -8.046875 L 4.1875 -8.046875 C 5 -8.859375 5.859375 -9.265625 6.765625 -9.265625 C 7.210938 -9.265625 7.65625 -9.203125 8.09375 -9.078125 C 8.53125 -8.960938 8.953125 -8.78125 9.359375 -8.53125 C 9.765625 -8.289062 10.09375 -7.945312 10.34375 -7.5 C 10.59375 -7.050781 10.71875 -6.53125 10.71875 -5.9375 L 10.71875 0 L 7.609375 0 L 7.609375 -5.09375 C 7.609375 -5.5625 7.457031 -5.96875 7.15625 -6.3125 C 6.863281 -6.664062 6.476562 -6.84375 6 -6.84375 C 5.53125 -6.84375 5.101562 -6.660156 4.71875 -6.296875 C 4.34375 -5.929688 4.15625 -5.53125 4.15625 -5.09375 L 4.15625 0 Z M 1.046875 0 "/></g></g></g></g><g fill="#000000" fill-opacity="1"><g transform="translate(23.643996, 15.811099)"><g><path d="M 10.15625 -4.078125 L 3.625 -4.078125 C 3.625 -3.441406 3.828125 -2.96875 4.234375 -2.65625 C 4.648438 -2.351562 5.097656 -2.203125 5.578125 -2.203125 C 6.078125 -2.203125 6.472656 -2.269531 6.765625 -2.40625 C 7.066406 -2.539062 7.398438 -2.8125 7.765625 -3.21875 L 10.015625 -2.09375 C 9.078125 -0.519531 7.523438 0.265625 5.359375 0.265625 C 3.992188 0.265625 2.828125 -0.195312 1.859375 -1.125 C 0.890625 -2.0625 0.40625 -3.179688 0.40625 -4.484375 C 0.40625 -5.796875 0.890625 -6.921875 1.859375 -7.859375 C 2.828125 -8.796875 3.992188 -9.265625 5.359375 -9.265625 C 6.785156 -9.265625 7.941406 -8.851562 8.828125 -8.03125 C 9.722656 -7.207031 10.171875 -6.023438 10.171875 -4.484375 C 10.171875 -4.273438 10.164062 -4.140625 10.15625 -4.078125 Z M 3.71875 -5.796875 L 7.140625 -5.796875 C 7.066406 -6.265625 6.878906 -6.625 6.578125 -6.875 C 6.285156 -7.125 5.90625 -7.25 5.4375 -7.25 C 4.925781 -7.25 4.515625 -7.113281 4.203125 -6.84375 C 3.898438 -6.570312 3.738281 -6.222656 3.71875 -5.796875 Z M 3.71875 -5.796875 "/></g></g></g><g fill="#000000" fill-opacity="1"><g transform="translate(34.400101, 15.811099)"><g><path d="M 8.40625 -14.46875 L 14.25 0 L 10.703125 0 L 9.640625 -2.890625 L 4.125 -2.890625 L 3.046875 0 L -0.484375 0 L 5.359375 -14.46875 Z M 8.515625 -5.796875 L 6.890625 -10 L 6.859375 -10 L 5.25 -5.796875 Z M 8.515625 -5.796875 "/></g></g></g><g clip-path="url(#9978152f0a)"><g fill="#000000" fill-opacity="1"><g transform="translate(48.332118, 15.811099)"><g><path d="M 1.046875 0 L 1.046875 -15.09375 L 4.15625 -15.09375 L 4.15625 0 Z M 1.046875 0 "/></g></g></g></g><g fill="#000000" fill-opacity="1"><g transform="translate(53.719006, 15.811099)"><g><path d="M 0.65625 2.203125 L 3.1875 0.96875 C 3.65625 1.738281 4.46875 2.125 5.625 2.125 C 6.164062 2.125 6.664062 1.953125 7.125 1.609375 C 7.59375 1.265625 7.828125 0.734375 7.828125 0.015625 L 7.828125 -0.65625 C 7.273438 -0.0390625 6.289062 0.265625 4.875 0.265625 C 3.582031 0.265625 2.515625 -0.191406 1.671875 -1.109375 C 0.828125 -2.023438 0.40625 -3.148438 0.40625 -4.484375 C 0.40625 -5.828125 0.828125 -6.957031 1.671875 -7.875 C 2.515625 -8.800781 3.582031 -9.265625 4.875 -9.265625 C 6.03125 -9.265625 6.992188 -8.90625 7.765625 -8.1875 L 7.828125 -8.1875 L 7.828125 -9 L 10.9375 -9 L 10.9375 0.25 C 10.9375 1.707031 10.445312 2.832031 9.46875 3.625 C 8.5 4.425781 7.21875 4.828125 5.625 4.828125 C 3.050781 4.828125 1.394531 3.953125 0.65625 2.203125 Z M 4.296875 -6.015625 C 3.898438 -5.617188 3.703125 -5.109375 3.703125 -4.484375 C 3.703125 -3.867188 3.894531 -3.363281 4.28125 -2.96875 C 4.664062 -2.582031 5.175781 -2.390625 5.8125 -2.390625 C 6.414062 -2.390625 6.910156 -2.585938 7.296875 -2.984375 C 7.691406 -3.378906 7.890625 -3.878906 7.890625 -4.484375 C 7.890625 -5.109375 7.6875 -5.617188 7.28125 -6.015625 C 6.882812 -6.410156 6.394531 -6.609375 5.8125 -6.609375 C 5.207031 -6.609375 4.703125 -6.410156 4.296875 -6.015625 Z M 4.296875 -6.015625 "/></g></g></g><g fill="#000000" fill-opacity="1"><g transform="translate(65.888085, 15.811099)"><g/></g></g><g fill="#000000" fill-opacity="1"><g transform="translate(70.853868, 15.811099)"><g/></g></g><g fill="#000000" fill-opacity="1"><g transform="translate(75.81965, 15.811099)"><g/></g></g><g fill="#000000" fill-opacity="1"><g transform="translate(80.785433, 15.811099)"><g/></g></g><g clip-path="url(#ca2e80c7a0)"><g fill="#000000" fill-opacity="1"><g transform="translate(85.755251, 15.811099)"><g><path d="M 6.578125 0 L 4.46875 0 L -0.34375 -9 L 3.234375 -9 L 5.421875 -4.140625 L 7.578125 -9 L 9.71875 -9 L 11.875 -4.140625 L 14.078125 -9 L 17.65625 -9 L 12.828125 0 L 10.71875 0 L 8.65625 -4.65625 Z M 6.578125 0 "/></g></g></g></g></g></g></g><g clip-path="url(#42b280d1dd)"><path fill="#3f7bed" d="M 107.296875 23.996094 C 107.296875 24.109375 107.222656 24.203125 107.121094 24.238281 L 104.761719 25.011719 L 103.988281 27.371094 C 103.957031 27.472656 103.859375 27.542969 103.75 27.542969 C 103.640625 27.542969 103.550781 27.476562 103.511719 27.382812 L 101.484375 22.058594 C 101.472656 22.03125 101.46875 22 101.46875 21.96875 C 101.46875 21.828125 101.582031 21.714844 101.722656 21.714844 C 101.753906 21.714844 101.785156 21.71875 101.8125 21.734375 L 107.136719 23.761719 C 107.230469 23.796875 107.296875 23.886719 107.296875 23.996094 Z M 107.296875 23.996094 " fill-opacity="1" fill-rule="nonzero"/></g><g clip-path="url(#e1fc149fa7)"><path fill="#24262b" d="M 100.980469 26.574219 C 98.035156 26.574219 95.636719 24.175781 95.636719 21.230469 C 95.636719 18.28125 98.035156 15.886719 100.980469 15.886719 C 103.929688 15.886719 106.324219 18.28125 106.324219 21.230469 C 106.324219 21.46875 106.308594 21.703125 106.277344 21.925781 C 106.242188 22.191406 105.996094 22.375 105.730469 22.339844 C 105.464844 22.304688 105.28125 22.058594 105.316406 21.792969 C 105.34375 21.613281 105.355469 21.421875 105.355469 21.230469 C 105.355469 18.820312 103.394531 16.855469 100.980469 16.855469 C 98.570312 16.855469 96.609375 18.820312 96.609375 21.230469 C 96.609375 23.640625 98.570312 25.601562 100.980469 25.601562 C 101.175781 25.601562 101.363281 25.589844 101.546875 25.5625 C 101.808594 25.527344 102.058594 25.714844 102.09375 25.980469 C 102.128906 26.246094 101.941406 26.488281 101.675781 26.527344 C 101.453125 26.558594 101.21875 26.574219 100.980469 26.574219 Z M 100.980469 26.574219 " fill-opacity="1" fill-rule="nonzero"/></g><path fill="#24262b" d="M 100.75 24.136719 C 100.734375 24.136719 100.722656 24.136719 100.707031 24.132812 C 99.199219 23.996094 98.058594 22.746094 98.058594 21.230469 C 98.058594 19.617188 99.371094 18.308594 100.980469 18.308594 C 102.503906 18.308594 103.753906 19.445312 103.886719 20.957031 C 103.910156 21.226562 103.714844 21.460938 103.445312 21.484375 C 103.171875 21.507812 102.945312 21.3125 102.921875 21.046875 C 102.828125 20.039062 101.996094 19.277344 100.980469 19.277344 C 99.90625 19.277344 99.03125 20.152344 99.03125 21.226562 C 99.03125 22.238281 99.789062 23.074219 100.796875 23.167969 C 101.0625 23.191406 101.257812 23.429688 101.234375 23.695312 C 101.210938 23.949219 101 24.136719 100.75 24.136719 Z M 100.75 24.136719 " fill-opacity="1" fill-rule="nonzero"/><g clip-path="url(#54a8a7fda6)"><g clip-path="url(#b2f0270b59)"><g clip-path="url(#574014be0b)"><path fill="#24262b" d="M 99.234375 19.378906 L 99.457031 19.378906 L 99.457031 19.601562 L 99.234375 19.601562 Z M 99.234375 19.378906 " fill-opacity="1" fill-rule="nonzero"/></g></g></g><g clip-path="url(#1b6689d227)"><g clip-path="url(#97158ba9d9)"><g transform="matrix(1, 0, 0, 1, 91, 16)"><g clip-path="url(#b8fa012b41)"><g clip-path="url(#285ea1aae1)"><g clip-path="url(#f7a66cb87f)"><path fill="#3f7bed" d="M 0.1875 0.171875 L 4.339844 0.171875 L 4.339844 4.324219 L 0.1875 4.324219 Z M 0.1875 0.171875 " fill-opacity="1" fill-rule="nonzero"/></g></g></g></g></g></g><path stroke-linecap="butt" transform="matrix(-0.0146907, -0.736461, 0.736461, -0.0146907, 88.123212, 25.289505)" fill="none" stroke-linejoin="miter" d="M 0.00253917 1.498231 L 12.355706 1.50066 " stroke="#000000" stroke-width="3" stroke-opacity="1" stroke-miterlimit="4"/><g clip-path="url(#a026dc5dae)"><path fill="#3f7bed" d="M 4.382812 9.613281 L 18.078125 9.613281 C 19.058594 9.613281 19.863281 10.417969 19.863281 11.398438 L 19.863281 25.089844 C 19.863281 26.074219 19.058594 26.875 18.078125 26.875 L 4.382812 26.875 C 4.023438 26.875 3.683594 26.765625 3.402344 26.578125 L 12.894531 20.328125 L 15.109375 22.582031 L 16.328125 13.304688 L 6.9375 14.25 L 9.15625 16.511719 L 2.636719 25.453125 C 2.609375 25.335938 2.597656 25.214844 2.597656 25.089844 L 2.597656 11.398438 C 2.597656 10.417969 3.402344 9.613281 4.382812 9.613281 " fill-opacity="1" fill-rule="evenodd"/></g></svg>