<svg xmlns="http://www.w3.org/2000/svg" xmlns:xlink="http://www.w3.org/1999/xlink" width="150" zoomAndPan="magnify" viewBox="0 0 112.5 41.25" height="55" preserveAspectRatio="xMidYMid meet" version="1.0"><defs><g/><clipPath id="f31776e2a9"><path d="M 0.757812 9 L 111.25 9 L 111.25 34 L 0.757812 34 Z M 0.757812 9 " clip-rule="nonzero"/></clipPath><clipPath id="1bd4ad3945"><path d="M 14 0.429688 L 25 0.429688 L 25 18 L 14 18 Z M 14 0.429688 " clip-rule="nonzero"/></clipPath><clipPath id="de5ff34f01"><path d="M 53 0.429688 L 57 0.429688 L 57 18 L 53 18 Z M 53 0.429688 " clip-rule="nonzero"/></clipPath><clipPath id="ca5c32d885"><rect x="0" width="112" y="0" height="25"/></clipPath><clipPath id="63539679f7"><path d="M 86 22 L 92.847656 22 L 92.847656 29 L 86 29 Z M 86 22 " clip-rule="nonzero"/></clipPath><clipPath id="cd95e8f9b5"><path d="M 80.324219 16.496094 L 92 16.496094 L 92 28 L 80.324219 28 Z M 80.324219 16.496094 " clip-rule="nonzero"/></clipPath><clipPath id="2e8f27c3a8"><path d="M 84.171875 20.230469 L 84.40625 20.230469 L 84.40625 20.464844 L 84.171875 20.464844 Z M 84.171875 20.230469 " clip-rule="nonzero"/></clipPath><clipPath id="aea9948812"><path d="M 84.289062 20.230469 C 84.222656 20.230469 84.171875 20.28125 84.171875 20.347656 C 84.171875 20.414062 84.222656 20.464844 84.289062 20.464844 C 84.355469 20.464844 84.40625 20.414062 84.40625 20.347656 C 84.40625 20.28125 84.355469 20.230469 84.289062 20.230469 Z M 84.289062 20.230469 " clip-rule="nonzero"/></clipPath><clipPath id="7cd332c4ef"><path d="M 84.289062 20.230469 C 84.222656 20.230469 84.171875 20.28125 84.171875 20.347656 C 84.171875 20.414062 84.222656 20.464844 84.289062 20.464844 C 84.355469 20.464844 84.40625 20.414062 84.40625 20.347656 C 84.40625 20.28125 84.355469 20.230469 84.289062 20.230469 Z M 84.289062 20.230469 " clip-rule="nonzero"/></clipPath><clipPath id="bdc0adb076"><path d="M 75.878906 16.800781 L 80.316406 16.800781 L 80.316406 21.234375 L 75.878906 21.234375 Z M 75.878906 16.800781 " clip-rule="nonzero"/></clipPath><clipPath id="1bc6f2bccf"><path d="M 78.097656 16.800781 C 76.871094 16.800781 75.878906 17.792969 75.878906 19.019531 C 75.878906 20.242188 76.871094 21.234375 78.097656 21.234375 C 79.320312 21.234375 80.316406 20.242188 80.316406 19.019531 C 80.316406 17.792969 79.320312 16.800781 78.097656 16.800781 Z M 78.097656 16.800781 " clip-rule="nonzero"/></clipPath><clipPath id="0573e73909"><path d="M 0.878906 0.800781 L 5.316406 0.800781 L 5.316406 5.234375 L 0.878906 5.234375 Z M 0.878906 0.800781 " clip-rule="nonzero"/></clipPath><clipPath id="ae6ce6e672"><path d="M 3.097656 0.800781 C 1.871094 0.800781 0.878906 1.792969 0.878906 3.019531 C 0.878906 4.242188 1.871094 5.234375 3.097656 5.234375 C 4.320312 5.234375 5.316406 4.242188 5.316406 3.019531 C 5.316406 1.792969 4.320312 0.800781 3.097656 0.800781 Z M 3.097656 0.800781 " clip-rule="nonzero"/></clipPath><clipPath id="1cd92a0e40"><rect x="0" width="6" y="0" height="6"/></clipPath><clipPath id="12a217dcf2"><path d="M 56 0 L 91 0 L 91 40.511719 L 56 40.511719 Z M 56 0 " clip-rule="nonzero"/></clipPath></defs><g clip-path="url(#f31776e2a9)"><g transform="matrix(1, 0, 0, 1, 0, 9)"><g clip-path="url(#ca5c32d885)"><g fill="#ffffff" fill-opacity="1"><g transform="translate(1.615491, 17.028549)"><g><path d="M 0.15625 -12.375 L 0.15625 -15.46875 L 11.03125 -15.46875 L 11.03125 -12.375 L 7.34375 -12.375 L 7.34375 0 L 3.828125 0 L 3.828125 -12.375 Z M 0.15625 -12.375 "/></g></g></g><g clip-path="url(#1bd4ad3945)"><g fill="#ffffff" fill-opacity="1"><g transform="translate(12.973601, 17.028549)"><g><path d="M 1.125 0 L 1.125 -16.125 L 4.4375 -16.125 L 4.4375 -8.609375 L 4.484375 -8.609375 C 5.347656 -9.472656 6.265625 -9.90625 7.234375 -9.90625 C 7.710938 -9.90625 8.1875 -9.84375 8.65625 -9.71875 C 9.125 -9.59375 9.570312 -9.394531 10 -9.125 C 10.4375 -8.863281 10.785156 -8.492188 11.046875 -8.015625 C 11.316406 -7.535156 11.453125 -6.976562 11.453125 -6.34375 L 11.453125 0 L 8.140625 0 L 8.140625 -5.4375 C 8.140625 -5.9375 7.976562 -6.375 7.65625 -6.75 C 7.34375 -7.125 6.925781 -7.3125 6.40625 -7.3125 C 5.90625 -7.3125 5.453125 -7.117188 5.046875 -6.734375 C 4.640625 -6.347656 4.4375 -5.914062 4.4375 -5.4375 L 4.4375 0 Z M 1.125 0 "/></g></g></g></g><g fill="#ffffff" fill-opacity="1"><g transform="translate(25.549974, 17.028549)"><g><path d="M 10.859375 -4.34375 L 3.875 -4.34375 C 3.875 -3.675781 4.09375 -3.175781 4.53125 -2.84375 C 4.96875 -2.519531 5.445312 -2.359375 5.96875 -2.359375 C 6.5 -2.359375 6.921875 -2.429688 7.234375 -2.578125 C 7.546875 -2.722656 7.90625 -3.007812 8.3125 -3.4375 L 10.703125 -2.234375 C 9.703125 -0.554688 8.039062 0.28125 5.71875 0.28125 C 4.269531 0.28125 3.023438 -0.210938 1.984375 -1.203125 C 0.953125 -2.203125 0.4375 -3.398438 0.4375 -4.796875 C 0.4375 -6.203125 0.953125 -7.40625 1.984375 -8.40625 C 3.023438 -9.40625 4.269531 -9.90625 5.71875 -9.90625 C 7.238281 -9.90625 8.476562 -9.460938 9.4375 -8.578125 C 10.394531 -7.691406 10.875 -6.429688 10.875 -4.796875 C 10.875 -4.578125 10.867188 -4.425781 10.859375 -4.34375 Z M 3.96875 -6.1875 L 7.625 -6.1875 C 7.550781 -6.6875 7.351562 -7.070312 7.03125 -7.34375 C 6.71875 -7.613281 6.3125 -7.75 5.8125 -7.75 C 5.257812 -7.75 4.820312 -7.601562 4.5 -7.3125 C 4.175781 -7.019531 4 -6.644531 3.96875 -6.1875 Z M 3.96875 -6.1875 "/></g></g></g><g fill="#ffffff" fill-opacity="1"><g transform="translate(37.039278, 17.028549)"><g><path d="M 8.984375 -15.46875 L 15.21875 0 L 11.4375 0 L 10.296875 -3.09375 L 4.40625 -3.09375 L 3.265625 0 L -0.53125 0 L 5.71875 -15.46875 Z M 9.09375 -6.1875 L 7.375 -10.6875 L 7.328125 -10.6875 L 5.609375 -6.1875 Z M 9.09375 -6.1875 "/></g></g></g><g clip-path="url(#de5ff34f01)"><g fill="#ffffff" fill-opacity="1"><g transform="translate(51.920982, 17.028549)"><g><path d="M 1.125 0 L 1.125 -16.125 L 4.4375 -16.125 L 4.4375 0 Z M 1.125 0 "/></g></g></g></g><g fill="#ffffff" fill-opacity="1"><g transform="translate(57.675072, 17.028549)"><g><path d="M 0.6875 2.359375 L 3.40625 1.03125 C 3.90625 1.851562 4.773438 2.265625 6.015625 2.265625 C 6.585938 2.265625 7.117188 2.078125 7.609375 1.703125 C 8.109375 1.335938 8.359375 0.773438 8.359375 0.015625 L 8.359375 -0.6875 C 7.773438 -0.0390625 6.726562 0.28125 5.21875 0.28125 C 3.820312 0.28125 2.675781 -0.207031 1.78125 -1.1875 C 0.882812 -2.164062 0.4375 -3.367188 0.4375 -4.796875 C 0.4375 -6.222656 0.882812 -7.429688 1.78125 -8.421875 C 2.675781 -9.410156 3.820312 -9.90625 5.21875 -9.90625 C 6.445312 -9.90625 7.476562 -9.519531 8.3125 -8.75 L 8.359375 -8.75 L 8.359375 -9.625 L 11.6875 -9.625 L 11.6875 0.265625 C 11.6875 1.828125 11.164062 3.03125 10.125 3.875 C 9.082031 4.726562 7.710938 5.15625 6.015625 5.15625 C 3.265625 5.15625 1.488281 4.222656 0.6875 2.359375 Z M 4.59375 -6.421875 C 4.164062 -6.003906 3.953125 -5.460938 3.953125 -4.796875 C 3.953125 -4.140625 4.15625 -3.597656 4.5625 -3.171875 C 4.976562 -2.753906 5.523438 -2.546875 6.203125 -2.546875 C 6.859375 -2.546875 7.394531 -2.757812 7.8125 -3.1875 C 8.226562 -3.613281 8.4375 -4.148438 8.4375 -4.796875 C 8.4375 -5.460938 8.21875 -6.003906 7.78125 -6.421875 C 7.351562 -6.847656 6.828125 -7.0625 6.203125 -7.0625 C 5.566406 -7.0625 5.03125 -6.847656 4.59375 -6.421875 Z M 4.59375 -6.421875 "/></g></g></g><g fill="#ffffff" fill-opacity="1"><g transform="translate(70.673667, 17.028549)"><g/></g></g><g fill="#ffffff" fill-opacity="1"><g transform="translate(75.977946, 17.028549)"><g/></g></g><g fill="#ffffff" fill-opacity="1"><g transform="translate(81.282225, 17.028549)"><g/></g></g><g fill="#ffffff" fill-opacity="1"><g transform="translate(86.586505, 17.028549)"><g/></g></g><g fill="#ffffff" fill-opacity="1"><g transform="translate(91.895094, 17.028549)"><g><path d="M 7.03125 0 L 4.78125 0 L -0.375 -9.625 L 3.453125 -9.625 L 5.796875 -4.421875 L 8.09375 -9.625 L 10.390625 -9.625 L 12.6875 -4.421875 L 15.03125 -9.625 L 18.859375 -9.625 L 13.703125 0 L 11.453125 0 L 9.25 -4.96875 Z M 7.03125 0 "/></g></g></g></g></g></g><g clip-path="url(#63539679f7)"><path fill="#3f7bed" d="M 92.789062 25.164062 C 92.789062 25.285156 92.710938 25.386719 92.605469 25.421875 L 90.082031 26.25 L 89.253906 28.773438 C 89.21875 28.878906 89.117188 28.960938 88.996094 28.960938 C 88.882812 28.960938 88.785156 28.886719 88.746094 28.785156 L 86.578125 23.09375 C 86.5625 23.066406 86.558594 23.03125 86.558594 22.996094 C 86.558594 22.847656 86.679688 22.726562 86.828125 22.726562 C 86.863281 22.726562 86.898438 22.730469 86.925781 22.746094 L 92.617188 24.914062 C 92.71875 24.949219 92.789062 25.046875 92.789062 25.164062 Z M 92.789062 25.164062 " fill-opacity="1" fill-rule="nonzero"/></g><g clip-path="url(#cd95e8f9b5)"><path fill="#ffffff" d="M 86.039062 27.921875 C 82.890625 27.921875 80.324219 25.355469 80.324219 22.207031 C 80.324219 19.058594 82.890625 16.496094 86.039062 16.496094 C 89.1875 16.496094 91.753906 19.058594 91.753906 22.207031 C 91.753906 22.460938 91.734375 22.710938 91.703125 22.949219 C 91.664062 23.234375 91.402344 23.433594 91.117188 23.394531 C 90.832031 23.355469 90.632812 23.09375 90.675781 22.808594 C 90.699219 22.617188 90.714844 22.414062 90.714844 22.207031 C 90.714844 19.628906 88.617188 17.53125 86.039062 17.53125 C 83.460938 17.53125 81.363281 19.628906 81.363281 22.207031 C 81.363281 24.785156 83.460938 26.882812 86.039062 26.882812 C 86.246094 26.882812 86.445312 26.867188 86.640625 26.839844 C 86.925781 26.800781 87.1875 27 87.226562 27.285156 C 87.265625 27.570312 87.066406 27.832031 86.78125 27.871094 C 86.542969 27.902344 86.292969 27.921875 86.039062 27.921875 Z M 86.039062 27.921875 " fill-opacity="1" fill-rule="nonzero"/></g><path fill="#ffffff" d="M 85.792969 25.316406 C 85.777344 25.316406 85.761719 25.316406 85.742188 25.3125 C 84.132812 25.164062 82.914062 23.828125 82.914062 22.207031 C 82.914062 20.484375 84.316406 19.082031 86.039062 19.082031 C 87.664062 19.082031 89 20.300781 89.144531 21.917969 C 89.171875 22.203125 88.960938 22.457031 88.675781 22.480469 C 88.378906 22.503906 88.136719 22.296875 88.109375 22.011719 C 88.015625 20.933594 87.125 20.121094 86.039062 20.121094 C 84.890625 20.121094 83.953125 21.054688 83.953125 22.207031 C 83.953125 23.289062 84.765625 24.179688 85.839844 24.277344 C 86.125 24.304688 86.335938 24.558594 86.308594 24.84375 C 86.285156 25.113281 86.058594 25.316406 85.792969 25.316406 Z M 85.792969 25.316406 " fill-opacity="1" fill-rule="nonzero"/><g clip-path="url(#2e8f27c3a8)"><g clip-path="url(#aea9948812)"><g clip-path="url(#7cd332c4ef)"><path fill="#ffffff" d="M 84.171875 20.230469 L 84.40625 20.230469 L 84.40625 20.464844 L 84.171875 20.464844 Z M 84.171875 20.230469 " fill-opacity="1" fill-rule="nonzero"/></g></g></g><g clip-path="url(#bdc0adb076)"><g clip-path="url(#1bc6f2bccf)"><g transform="matrix(1, 0, 0, 1, 75, 16)"><g clip-path="url(#1cd92a0e40)"><g clip-path="url(#0573e73909)"><g clip-path="url(#ae6ce6e672)"><path fill="#3f7bed" d="M 0.878906 0.800781 L 5.316406 0.800781 L 5.316406 5.234375 L 0.878906 5.234375 Z M 0.878906 0.800781 " fill-opacity="1" fill-rule="nonzero"/></g></g></g></g></g></g><g clip-path="url(#12a217dcf2)"><path stroke-linecap="butt" transform="matrix(-0.0146907, -0.736461, 0.736461, -0.0146907, 72.006576, 26.546265)" fill="none" stroke-linejoin="miter" d="M 0.00168258 2.001353 L 13.198287 1.999391 " stroke="#ffffff" stroke-width="4" stroke-opacity="1" stroke-miterlimit="4"/></g></svg>