<svg xmlns="http://www.w3.org/2000/svg" xmlns:xlink="http://www.w3.org/1999/xlink" width="200" zoomAndPan="magnify" viewBox="0 0 150 37.5" height="50" preserveAspectRatio="xMidYMid meet" version="1.0"><defs><g/><clipPath id="d70e804751"><rect x="0" width="123" y="0" height="27"/></clipPath><clipPath id="55b8987d2f"><path d="M 120 21 L 127.390625 21 L 127.390625 28.496094 L 120 28.496094 Z M 120 21 " clip-rule="nonzero"/></clipPath><clipPath id="fbbbe98e7d"><path d="M 113.328125 14.433594 L 126 14.433594 L 126 27 L 113.328125 27 Z M 113.328125 14.433594 " clip-rule="nonzero"/></clipPath><clipPath id="c58295b6a4"><path d="M 117.550781 18.535156 L 117.808594 18.535156 L 117.808594 18.796875 L 117.550781 18.796875 Z M 117.550781 18.535156 " clip-rule="nonzero"/></clipPath><clipPath id="ef6a65e49c"><path d="M 117.679688 18.535156 C 117.609375 18.535156 117.550781 18.59375 117.550781 18.667969 C 117.550781 18.738281 117.609375 18.796875 117.679688 18.796875 C 117.753906 18.796875 117.808594 18.738281 117.808594 18.667969 C 117.808594 18.59375 117.753906 18.535156 117.679688 18.535156 Z M 117.679688 18.535156 " clip-rule="nonzero"/></clipPath><clipPath id="dfeae6e9d0"><path d="M 117.679688 18.535156 C 117.609375 18.535156 117.550781 18.59375 117.550781 18.667969 C 117.550781 18.738281 117.609375 18.796875 117.679688 18.796875 C 117.753906 18.796875 117.808594 18.738281 117.808594 18.667969 C 117.808594 18.59375 117.753906 18.535156 117.679688 18.535156 Z M 117.679688 18.535156 " clip-rule="nonzero"/></clipPath><clipPath id="f202f67e88"><path d="M 108.105469 14.769531 L 112.976562 14.769531 L 112.976562 19.640625 L 108.105469 19.640625 Z M 108.105469 14.769531 " clip-rule="nonzero"/></clipPath><clipPath id="eeb872b407"><path d="M 110.542969 14.769531 C 109.199219 14.769531 108.105469 15.863281 108.105469 17.207031 C 108.105469 18.550781 109.199219 19.640625 110.542969 19.640625 C 111.886719 19.640625 112.976562 18.550781 112.976562 17.207031 C 112.976562 15.863281 111.886719 14.769531 110.542969 14.769531 Z M 110.542969 14.769531 " clip-rule="nonzero"/></clipPath><clipPath id="7aa91bbfad"><path d="M 0.105469 0.769531 L 4.976562 0.769531 L 4.976562 5.640625 L 0.105469 5.640625 Z M 0.105469 0.769531 " clip-rule="nonzero"/></clipPath><clipPath id="e6f91f6b35"><path d="M 2.542969 0.769531 C 1.199219 0.769531 0.105469 1.863281 0.105469 3.207031 C 0.105469 4.550781 1.199219 5.640625 2.542969 5.640625 C 3.886719 5.640625 4.976562 4.550781 4.976562 3.207031 C 4.976562 1.863281 3.886719 0.769531 2.542969 0.769531 Z M 2.542969 0.769531 " clip-rule="nonzero"/></clipPath><clipPath id="f97e646808"><rect x="0" width="5" y="0" height="6"/></clipPath><clipPath id="68a62e77b8"><path d="M 80 0 L 131 0 L 131 37.007812 L 80 37.007812 Z M 80 0 " clip-rule="nonzero"/></clipPath><clipPath id="227bac0a32"><path d="M 2.4375 7.074219 L 22.421875 7.074219 L 22.421875 27.058594 L 2.4375 27.058594 Z M 2.4375 7.074219 " clip-rule="nonzero"/></clipPath></defs><g transform="matrix(1, 0, 0, 1, 26, 6)"><g clip-path="url(#d70e804751)"><g fill="#000000" fill-opacity="1"><g transform="translate(1.207167, 18.906626)"><g><path d="M 0.171875 -13.59375 L 0.171875 -16.984375 L 12.109375 -16.984375 L 12.109375 -13.59375 L 8.078125 -13.59375 L 8.078125 0 L 4.203125 0 L 4.203125 -13.59375 Z M 0.171875 -13.59375 "/></g></g></g><g fill="#000000" fill-opacity="1"><g transform="translate(13.682857, 18.906626)"><g><path d="M 1.234375 0 L 1.234375 -17.703125 L 4.875 -17.703125 L 4.875 -9.453125 L 4.921875 -9.453125 C 5.867188 -10.398438 6.878906 -10.875 7.953125 -10.875 C 8.472656 -10.875 8.988281 -10.804688 9.5 -10.671875 C 10.019531 -10.535156 10.515625 -10.320312 10.984375 -10.03125 C 11.460938 -9.738281 11.847656 -9.328125 12.140625 -8.796875 C 12.429688 -8.273438 12.578125 -7.660156 12.578125 -6.953125 L 12.578125 0 L 8.9375 0 L 8.9375 -5.96875 C 8.9375 -6.519531 8.757812 -7 8.40625 -7.40625 C 8.0625 -7.820312 7.609375 -8.03125 7.046875 -8.03125 C 6.492188 -8.03125 5.992188 -7.816406 5.546875 -7.390625 C 5.097656 -6.960938 4.875 -6.488281 4.875 -5.96875 L 4.875 0 Z M 1.234375 0 "/></g></g></g><g fill="#000000" fill-opacity="1"><g transform="translate(27.496682, 18.906626)"><g><path d="M 11.921875 -4.78125 L 4.265625 -4.78125 C 4.265625 -4.039062 4.503906 -3.488281 4.984375 -3.125 C 5.460938 -2.769531 5.984375 -2.59375 6.546875 -2.59375 C 7.140625 -2.59375 7.609375 -2.671875 7.953125 -2.828125 C 8.296875 -2.984375 8.6875 -3.296875 9.125 -3.765625 L 11.765625 -2.453125 C 10.660156 -0.609375 8.832031 0.3125 6.28125 0.3125 C 4.6875 0.3125 3.316406 -0.234375 2.171875 -1.328125 C 1.035156 -2.421875 0.46875 -3.734375 0.46875 -5.265625 C 0.46875 -6.804688 1.035156 -8.125 2.171875 -9.21875 C 3.316406 -10.320312 4.6875 -10.875 6.28125 -10.875 C 7.957031 -10.875 9.316406 -10.390625 10.359375 -9.421875 C 11.410156 -8.453125 11.9375 -7.066406 11.9375 -5.265625 C 11.9375 -5.023438 11.929688 -4.863281 11.921875 -4.78125 Z M 4.359375 -6.796875 L 8.375 -6.796875 C 8.300781 -7.347656 8.085938 -7.769531 7.734375 -8.0625 C 7.378906 -8.351562 6.929688 -8.5 6.390625 -8.5 C 5.785156 -8.5 5.300781 -8.34375 4.9375 -8.03125 C 4.582031 -7.71875 4.390625 -7.304688 4.359375 -6.796875 Z M 4.359375 -6.796875 "/></g></g></g><g fill="#000000" fill-opacity="1"><g transform="translate(40.116476, 18.906626)"><g><path d="M 9.859375 -16.984375 L 16.71875 0 L 12.5625 0 L 11.3125 -3.390625 L 4.84375 -3.390625 L 3.578125 0 L -0.578125 0 L 6.28125 -16.984375 Z M 9.984375 -6.796875 L 8.09375 -11.734375 L 8.046875 -11.734375 L 6.15625 -6.796875 Z M 9.984375 -6.796875 "/></g></g></g><g fill="#000000" fill-opacity="1"><g transform="translate(56.462465, 18.906626)"><g><path d="M 1.234375 0 L 1.234375 -17.703125 L 4.875 -17.703125 L 4.875 0 Z M 1.234375 0 "/></g></g></g><g fill="#000000" fill-opacity="1"><g transform="translate(62.782728, 18.906626)"><g><path d="M 0.765625 2.59375 L 3.75 1.125 C 4.300781 2.03125 5.253906 2.484375 6.609375 2.484375 C 7.242188 2.484375 7.832031 2.28125 8.375 1.875 C 8.914062 1.476562 9.1875 0.859375 9.1875 0.015625 L 9.1875 -0.765625 C 8.539062 -0.046875 7.382812 0.3125 5.71875 0.3125 C 4.195312 0.3125 2.941406 -0.222656 1.953125 -1.296875 C 0.960938 -2.378906 0.46875 -3.703125 0.46875 -5.265625 C 0.46875 -6.835938 0.960938 -8.164062 1.953125 -9.25 C 2.941406 -10.332031 4.195312 -10.875 5.71875 -10.875 C 7.082031 -10.875 8.21875 -10.457031 9.125 -9.625 L 9.1875 -9.625 L 9.1875 -10.5625 L 12.828125 -10.5625 L 12.828125 0.28125 C 12.828125 2 12.253906 3.320312 11.109375 4.25 C 9.972656 5.1875 8.472656 5.65625 6.609375 5.65625 C 3.585938 5.65625 1.640625 4.632812 0.765625 2.59375 Z M 5.046875 -7.0625 C 4.578125 -6.59375 4.34375 -5.992188 4.34375 -5.265625 C 4.34375 -4.546875 4.566406 -3.953125 5.015625 -3.484375 C 5.472656 -3.023438 6.070312 -2.796875 6.8125 -2.796875 C 7.53125 -2.796875 8.117188 -3.03125 8.578125 -3.5 C 9.035156 -3.96875 9.265625 -4.554688 9.265625 -5.265625 C 9.265625 -5.992188 9.023438 -6.59375 8.546875 -7.0625 C 8.078125 -7.53125 7.5 -7.765625 6.8125 -7.765625 C 6.113281 -7.765625 5.523438 -7.53125 5.046875 -7.0625 Z M 5.046875 -7.0625 "/></g></g></g><g fill="#000000" fill-opacity="1"><g transform="translate(77.06032, 18.906626)"><g/></g></g><g fill="#000000" fill-opacity="1"><g transform="translate(82.886514, 18.906626)"><g/></g></g><g fill="#000000" fill-opacity="1"><g transform="translate(88.712707, 18.906626)"><g/></g></g><g fill="#000000" fill-opacity="1"><g transform="translate(94.538901, 18.906626)"><g/></g></g><g fill="#000000" fill-opacity="1"><g transform="translate(100.369829, 18.906626)"><g><path d="M 7.71875 0 L 5.25 0 L -0.40625 -10.5625 L 3.796875 -10.5625 L 6.359375 -4.859375 L 8.890625 -10.5625 L 11.40625 -10.5625 L 13.9375 -4.859375 L 16.515625 -10.5625 L 20.71875 -10.5625 L 15.046875 0 L 12.578125 0 L 10.15625 -5.453125 Z M 7.71875 0 "/></g></g></g></g></g><g clip-path="url(#55b8987d2f)"><path fill="#3f7bed" d="M 127.019531 23.960938 C 127.019531 24.089844 126.933594 24.203125 126.8125 24.242188 L 124.042969 25.148438 L 123.136719 27.921875 C 123.09375 28.039062 122.984375 28.125 122.851562 28.125 C 122.722656 28.125 122.617188 28.046875 122.574219 27.9375 L 120.195312 21.6875 C 120.179688 21.652344 120.171875 21.617188 120.171875 21.578125 C 120.171875 21.414062 120.308594 21.28125 120.472656 21.28125 C 120.507812 21.28125 120.542969 21.285156 120.578125 21.300781 L 126.828125 23.683594 C 126.9375 23.722656 127.019531 23.832031 127.019531 23.960938 Z M 127.019531 23.960938 " fill-opacity="1" fill-rule="nonzero"/></g><g clip-path="url(#fbbbe98e7d)"><path fill="#24262b" d="M 119.601562 26.984375 C 116.140625 26.984375 113.328125 24.171875 113.328125 20.710938 C 113.328125 17.25 116.140625 14.433594 119.601562 14.433594 C 123.0625 14.433594 125.878906 17.25 125.878906 20.710938 C 125.878906 20.988281 125.859375 21.265625 125.824219 21.527344 C 125.78125 21.839844 125.492188 22.054688 125.179688 22.015625 C 124.867188 21.972656 124.648438 21.683594 124.695312 21.371094 C 124.722656 21.160156 124.738281 20.9375 124.738281 20.710938 C 124.738281 17.878906 122.433594 15.574219 119.601562 15.574219 C 116.769531 15.574219 114.46875 17.878906 114.46875 20.710938 C 114.46875 23.539062 116.769531 25.84375 119.601562 25.84375 C 119.828125 25.84375 120.050781 25.828125 120.265625 25.800781 C 120.574219 25.753906 120.863281 25.976562 120.90625 26.289062 C 120.949219 26.601562 120.730469 26.886719 120.417969 26.929688 C 120.152344 26.96875 119.878906 26.984375 119.601562 26.984375 Z M 119.601562 26.984375 " fill-opacity="1" fill-rule="nonzero"/></g><path fill="#24262b" d="M 119.332031 24.125 C 119.3125 24.125 119.296875 24.125 119.277344 24.121094 C 117.507812 23.957031 116.171875 22.492188 116.171875 20.710938 C 116.171875 18.816406 117.710938 17.277344 119.601562 17.277344 C 121.390625 17.277344 122.855469 18.617188 123.015625 20.394531 C 123.042969 20.707031 122.8125 20.984375 122.496094 21.011719 C 122.171875 21.035156 121.90625 20.808594 121.878906 20.496094 C 121.773438 19.3125 120.792969 18.417969 119.601562 18.417969 C 118.339844 18.417969 117.3125 19.445312 117.3125 20.707031 C 117.3125 21.898438 118.203125 22.875 119.382812 22.984375 C 119.699219 23.015625 119.929688 23.292969 119.898438 23.605469 C 119.871094 23.902344 119.621094 24.125 119.332031 24.125 Z M 119.332031 24.125 " fill-opacity="1" fill-rule="nonzero"/><g clip-path="url(#c58295b6a4)"><g clip-path="url(#ef6a65e49c)"><g clip-path="url(#dfeae6e9d0)"><path fill="#24262b" d="M 117.550781 18.535156 L 117.808594 18.535156 L 117.808594 18.796875 L 117.550781 18.796875 Z M 117.550781 18.535156 " fill-opacity="1" fill-rule="nonzero"/></g></g></g><g clip-path="url(#f202f67e88)"><g clip-path="url(#eeb872b407)"><g transform="matrix(1, 0, 0, 1, 108, 14)"><g clip-path="url(#f97e646808)"><g clip-path="url(#7aa91bbfad)"><g clip-path="url(#e6f91f6b35)"><path fill="#3f7bed" d="M 0.105469 0.769531 L 4.976562 0.769531 L 4.976562 5.640625 L 0.105469 5.640625 Z M 0.105469 0.769531 " fill-opacity="1" fill-rule="nonzero"/></g></g></g></g></g></g><g clip-path="url(#68a62e77b8)"><path stroke-linecap="butt" transform="matrix(-0.014761, -0.739984, 0.739984, -0.014761, 103.588728, 25.489427)" fill="none" stroke-linejoin="miter" d="M -0.000225416 2.999878 L 14.426757 3.002607 " stroke="#000000" stroke-width="6" stroke-opacity="1" stroke-miterlimit="4"/></g><g clip-path="url(#227bac0a32)"><path fill="#3f7bed" d="M 4.535156 7.074219 L 20.601562 7.074219 C 21.753906 7.074219 22.699219 8.019531 22.699219 9.171875 L 22.699219 25.238281 C 22.699219 26.390625 21.753906 27.335938 20.601562 27.335938 L 4.535156 27.335938 C 4.109375 27.335938 3.710938 27.207031 3.378906 26.988281 L 14.523438 19.648438 L 17.121094 22.296875 L 18.550781 11.40625 L 7.53125 12.519531 L 10.132812 15.171875 L 2.480469 25.664062 C 2.453125 25.527344 2.4375 25.382812 2.4375 25.238281 L 2.4375 9.171875 C 2.4375 8.019531 3.378906 7.074219 4.535156 7.074219 " fill-opacity="1" fill-rule="evenodd"/></g></svg>