<svg xmlns="http://www.w3.org/2000/svg" xmlns:xlink="http://www.w3.org/1999/xlink" width="230" zoomAndPan="magnify" viewBox="0 0 172.5 37.5" height="50" preserveAspectRatio="xMidYMid meet" version="1.0"><defs><g/><clipPath id="e99b654b42"><path d="M 30 4 L 171.117188 4 L 171.117188 35 L 30 35 Z M 30 4 " clip-rule="nonzero"/></clipPath><clipPath id="f66b100598"><rect x="0" width="142" y="0" height="31"/></clipPath><clipPath id="b9e323c31b"><path d="M 139 21 L 147.527344 21 L 147.527344 29.792969 L 139 29.792969 Z M 139 21 " clip-rule="nonzero"/></clipPath><clipPath id="b3094d8e8b"><path d="M 131.242188 13.511719 L 146 13.511719 L 146 29 L 131.242188 29 Z M 131.242188 13.511719 " clip-rule="nonzero"/></clipPath><clipPath id="01483286cf"><path d="M 136.152344 18.28125 L 136.453125 18.28125 L 136.453125 18.582031 L 136.152344 18.582031 Z M 136.152344 18.28125 " clip-rule="nonzero"/></clipPath><clipPath id="5eff4f0ef4"><path d="M 136.300781 18.28125 C 136.21875 18.28125 136.152344 18.347656 136.152344 18.429688 C 136.152344 18.511719 136.21875 18.582031 136.300781 18.582031 C 136.386719 18.582031 136.453125 18.511719 136.453125 18.429688 C 136.453125 18.347656 136.386719 18.28125 136.300781 18.28125 Z M 136.300781 18.28125 " clip-rule="nonzero"/></clipPath><clipPath id="80ae97c5b6"><path d="M 136.300781 18.28125 C 136.21875 18.28125 136.152344 18.347656 136.152344 18.429688 C 136.152344 18.511719 136.21875 18.582031 136.300781 18.582031 C 136.386719 18.582031 136.453125 18.511719 136.453125 18.429688 C 136.453125 18.347656 136.386719 18.28125 136.300781 18.28125 Z M 136.300781 18.28125 " clip-rule="nonzero"/></clipPath><clipPath id="36edf29eb0"><path d="M 125.175781 13.902344 L 130.839844 13.902344 L 130.839844 19.566406 L 125.175781 19.566406 Z M 125.175781 13.902344 " clip-rule="nonzero"/></clipPath><clipPath id="57bfae6d34"><path d="M 128.007812 13.902344 C 126.441406 13.902344 125.175781 15.171875 125.175781 16.734375 C 125.175781 18.296875 126.441406 19.566406 128.007812 19.566406 C 129.570312 19.566406 130.839844 18.296875 130.839844 16.734375 C 130.839844 15.171875 129.570312 13.902344 128.007812 13.902344 Z M 128.007812 13.902344 " clip-rule="nonzero"/></clipPath><clipPath id="a1ff812776"><path d="M 0.175781 0.902344 L 5.839844 0.902344 L 5.839844 6.566406 L 0.175781 6.566406 Z M 0.175781 0.902344 " clip-rule="nonzero"/></clipPath><clipPath id="9e7dc23dd0"><path d="M 3.007812 0.902344 C 1.441406 0.902344 0.175781 2.171875 0.175781 3.734375 C 0.175781 5.296875 1.441406 6.566406 3.007812 6.566406 C 4.570312 6.566406 5.839844 5.296875 5.839844 3.734375 C 5.839844 2.171875 4.570312 0.902344 3.007812 0.902344 Z M 3.007812 0.902344 " clip-rule="nonzero"/></clipPath><clipPath id="872b24941c"><rect x="0" width="6" y="0" height="7"/></clipPath><clipPath id="b78099300b"><path d="M 97 0 L 148 0 L 148 37.007812 L 97 37.007812 Z M 97 0 " clip-rule="nonzero"/></clipPath><clipPath id="f8b467ffde"><path d="M 2.621094 4.289062 L 26.167969 4.289062 L 26.167969 27.835938 L 2.621094 27.835938 Z M 2.621094 4.289062 " clip-rule="nonzero"/></clipPath></defs><g clip-path="url(#e99b654b42)"><g transform="matrix(1, 0, 0, 1, 30, 4)"><g clip-path="url(#f66b100598)"><g fill="#000000" fill-opacity="1"><g transform="translate(1.131665, 21.684955)"><g><path d="M 0.1875 -15.796875 L 0.1875 -19.75 L 14.078125 -19.75 L 14.078125 -15.796875 L 9.390625 -15.796875 L 9.390625 0 L 4.890625 0 L 4.890625 -15.796875 Z M 0.1875 -15.796875 "/></g></g></g><g fill="#000000" fill-opacity="1"><g transform="translate(15.634261, 21.684955)"><g><path d="M 1.4375 0 L 1.4375 -20.59375 L 5.671875 -20.59375 L 5.671875 -10.984375 L 5.71875 -10.984375 C 6.820312 -12.085938 7.992188 -12.640625 9.234375 -12.640625 C 9.847656 -12.640625 10.453125 -12.554688 11.046875 -12.390625 C 11.640625 -12.234375 12.210938 -11.988281 12.765625 -11.65625 C 13.316406 -11.320312 13.765625 -10.847656 14.109375 -10.234375 C 14.453125 -9.617188 14.625 -8.90625 14.625 -8.09375 L 14.625 0 L 10.390625 0 L 10.390625 -6.9375 C 10.390625 -7.582031 10.1875 -8.140625 9.78125 -8.609375 C 9.375 -9.085938 8.84375 -9.328125 8.1875 -9.328125 C 7.550781 -9.328125 6.972656 -9.078125 6.453125 -8.578125 C 5.929688 -8.085938 5.671875 -7.539062 5.671875 -6.9375 L 5.671875 0 Z M 1.4375 0 "/></g></g></g><g fill="#000000" fill-opacity="1"><g transform="translate(31.692396, 21.684955)"><g><path d="M 13.859375 -5.546875 L 4.953125 -5.546875 C 4.953125 -4.691406 5.226562 -4.054688 5.78125 -3.640625 C 6.34375 -3.222656 6.953125 -3.015625 7.609375 -3.015625 C 8.296875 -3.015625 8.835938 -3.101562 9.234375 -3.28125 C 9.640625 -3.46875 10.097656 -3.832031 10.609375 -4.375 L 13.671875 -2.84375 C 12.390625 -0.707031 10.265625 0.359375 7.296875 0.359375 C 5.453125 0.359375 3.863281 -0.273438 2.53125 -1.546875 C 1.207031 -2.816406 0.546875 -4.34375 0.546875 -6.125 C 0.546875 -7.914062 1.207031 -9.445312 2.53125 -10.71875 C 3.863281 -12 5.453125 -12.640625 7.296875 -12.640625 C 9.242188 -12.640625 10.828125 -12.078125 12.046875 -10.953125 C 13.273438 -9.828125 13.890625 -8.21875 13.890625 -6.125 C 13.890625 -5.84375 13.878906 -5.648438 13.859375 -5.546875 Z M 5.078125 -7.90625 L 9.75 -7.90625 C 9.644531 -8.539062 9.390625 -9.03125 8.984375 -9.375 C 8.578125 -9.71875 8.054688 -9.890625 7.421875 -9.890625 C 6.722656 -9.890625 6.164062 -9.703125 5.75 -9.328125 C 5.332031 -8.960938 5.109375 -8.488281 5.078125 -7.90625 Z M 5.078125 -7.90625 "/></g></g></g><g fill="#000000" fill-opacity="1"><g transform="translate(46.362508, 21.684955)"><g><path d="M 11.46875 -19.75 L 19.4375 0 L 14.609375 0 L 13.140625 -3.953125 L 5.625 -3.953125 L 4.171875 0 L -0.671875 0 L 7.296875 -19.75 Z M 11.609375 -7.90625 L 9.40625 -13.640625 L 9.359375 -13.640625 L 7.15625 -7.90625 Z M 11.609375 -7.90625 "/></g></g></g><g fill="#000000" fill-opacity="1"><g transform="translate(65.364204, 21.684955)"><g><path d="M 1.4375 0 L 1.4375 -20.59375 L 5.671875 -20.59375 L 5.671875 0 Z M 1.4375 0 "/></g></g></g><g fill="#000000" fill-opacity="1"><g transform="translate(72.71131, 21.684955)"><g><path d="M 0.890625 3.015625 L 4.359375 1.3125 C 4.992188 2.363281 6.101562 2.890625 7.6875 2.890625 C 8.414062 2.890625 9.09375 2.65625 9.71875 2.1875 C 10.351562 1.71875 10.671875 1 10.671875 0.03125 L 10.671875 -0.890625 C 9.921875 -0.0546875 8.582031 0.359375 6.65625 0.359375 C 4.882812 0.359375 3.421875 -0.265625 2.265625 -1.515625 C 1.117188 -2.773438 0.546875 -4.3125 0.546875 -6.125 C 0.546875 -7.945312 1.117188 -9.488281 2.265625 -10.75 C 3.421875 -12.007812 4.882812 -12.640625 6.65625 -12.640625 C 8.238281 -12.640625 9.554688 -12.148438 10.609375 -11.171875 L 10.671875 -11.171875 L 10.671875 -12.28125 L 14.90625 -12.28125 L 14.90625 0.328125 C 14.90625 2.328125 14.242188 3.867188 12.921875 4.953125 C 11.597656 6.035156 9.851562 6.578125 7.6875 6.578125 C 4.175781 6.578125 1.910156 5.390625 0.890625 3.015625 Z M 5.875 -8.203125 C 5.320312 -7.660156 5.046875 -6.96875 5.046875 -6.125 C 5.046875 -5.28125 5.304688 -4.585938 5.828125 -4.046875 C 6.359375 -3.515625 7.054688 -3.25 7.921875 -3.25 C 8.753906 -3.25 9.4375 -3.519531 9.96875 -4.0625 C 10.5 -4.613281 10.765625 -5.300781 10.765625 -6.125 C 10.765625 -6.96875 10.488281 -7.660156 9.9375 -8.203125 C 9.394531 -8.753906 8.722656 -9.03125 7.921875 -9.03125 C 7.109375 -9.03125 6.425781 -8.753906 5.875 -8.203125 Z M 5.875 -8.203125 "/></g></g></g><g fill="#000000" fill-opacity="1"><g transform="translate(89.308559, 21.684955)"><g/></g></g><g fill="#000000" fill-opacity="1"><g transform="translate(96.081325, 21.684955)"><g/></g></g><g fill="#000000" fill-opacity="1"><g transform="translate(102.854092, 21.684955)"><g/></g></g><g fill="#000000" fill-opacity="1"><g transform="translate(109.626858, 21.684955)"><g/></g></g><g fill="#000000" fill-opacity="1"><g transform="translate(116.405127, 21.684955)"><g><path d="M 8.96875 0 L 6.109375 0 L -0.484375 -12.28125 L 4.40625 -12.28125 L 7.390625 -5.65625 L 10.34375 -12.28125 L 13.265625 -12.28125 L 16.203125 -5.65625 L 19.203125 -12.28125 L 24.078125 -12.28125 L 17.5 0 L 14.625 0 L 11.796875 -6.34375 Z M 8.96875 0 "/></g></g></g></g></g></g><g clip-path="url(#b9e323c31b)"><path fill="#3f7bed" d="M 147.15625 24.582031 C 147.15625 24.734375 147.054688 24.863281 146.917969 24.910156 L 143.695312 25.964844 L 142.640625 29.183594 C 142.597656 29.324219 142.464844 29.425781 142.3125 29.425781 C 142.164062 29.425781 142.039062 29.332031 141.992188 29.203125 L 139.222656 21.9375 C 139.207031 21.898438 139.199219 21.859375 139.199219 21.8125 C 139.199219 21.625 139.355469 21.46875 139.546875 21.46875 C 139.589844 21.46875 139.632812 21.472656 139.671875 21.492188 L 146.933594 24.257812 C 147.0625 24.308594 147.15625 24.433594 147.15625 24.582031 Z M 147.15625 24.582031 " fill-opacity="1" fill-rule="nonzero"/></g><g clip-path="url(#b3094d8e8b)"><path fill="#24262b" d="M 138.535156 28.097656 C 134.515625 28.097656 131.242188 24.824219 131.242188 20.804688 C 131.242188 16.785156 134.515625 13.511719 138.535156 13.511719 C 142.558594 13.511719 145.828125 16.785156 145.828125 20.804688 C 145.828125 21.128906 145.808594 21.449219 145.765625 21.753906 C 145.71875 22.117188 145.378906 22.371094 145.019531 22.320312 C 144.65625 22.269531 144.402344 21.9375 144.453125 21.574219 C 144.488281 21.328125 144.503906 21.070312 144.503906 20.804688 C 144.503906 17.515625 141.828125 14.835938 138.535156 14.835938 C 135.246094 14.835938 132.570312 17.515625 132.570312 20.804688 C 132.570312 24.09375 135.246094 26.773438 138.535156 26.773438 C 138.800781 26.773438 139.058594 26.753906 139.304688 26.722656 C 139.667969 26.667969 140.003906 26.925781 140.050781 27.289062 C 140.101562 27.652344 139.847656 27.984375 139.484375 28.035156 C 139.175781 28.078125 138.859375 28.097656 138.535156 28.097656 Z M 138.535156 28.097656 " fill-opacity="1" fill-rule="nonzero"/></g><path fill="#24262b" d="M 138.222656 24.773438 C 138.199219 24.773438 138.179688 24.773438 138.160156 24.769531 C 136.101562 24.578125 134.546875 22.875 134.546875 20.804688 C 134.546875 18.605469 136.335938 16.816406 138.535156 16.816406 C 140.613281 16.816406 142.316406 18.371094 142.5 20.4375 C 142.535156 20.800781 142.265625 21.121094 141.902344 21.15625 C 141.523438 21.183594 141.214844 20.917969 141.179688 20.554688 C 141.058594 19.179688 139.921875 18.140625 138.535156 18.140625 C 137.066406 18.140625 135.875 19.335938 135.875 20.804688 C 135.875 22.183594 136.910156 23.320312 138.28125 23.449219 C 138.648438 23.484375 138.914062 23.804688 138.882812 24.171875 C 138.847656 24.515625 138.558594 24.773438 138.222656 24.773438 Z M 138.222656 24.773438 " fill-opacity="1" fill-rule="nonzero"/><g clip-path="url(#01483286cf)"><g clip-path="url(#5eff4f0ef4)"><g clip-path="url(#80ae97c5b6)"><path fill="#24262b" d="M 136.152344 18.28125 L 136.453125 18.28125 L 136.453125 18.582031 L 136.152344 18.582031 Z M 136.152344 18.28125 " fill-opacity="1" fill-rule="nonzero"/></g></g></g><g clip-path="url(#36edf29eb0)"><g clip-path="url(#57bfae6d34)"><g transform="matrix(1, 0, 0, 1, 125, 13)"><g clip-path="url(#872b24941c)"><g clip-path="url(#a1ff812776)"><g clip-path="url(#9e7dc23dd0)"><path fill="#3f7bed" d="M 0.175781 0.902344 L 5.839844 0.902344 L 5.839844 6.566406 L 0.175781 6.566406 Z M 0.175781 0.902344 " fill-opacity="1" fill-rule="nonzero"/></g></g></g></g></g></g><g clip-path="url(#b78099300b)"><path stroke-linecap="butt" transform="matrix(-0.014761, -0.739984, 0.739984, -0.014761, 120.283744, 26.355491)" fill="none" stroke-linejoin="miter" d="M -0.001751 3.000247 L 16.774323 3.002326 " stroke="#000000" stroke-width="6" stroke-opacity="1" stroke-miterlimit="4"/></g><g clip-path="url(#f8b467ffde)"><path fill="#3f7bed" d="M 5.058594 4.289062 L 23.730469 4.289062 C 25.070312 4.289062 26.167969 5.386719 26.167969 6.722656 L 26.167969 25.398438 C 26.167969 26.738281 25.070312 27.835938 23.730469 27.835938 L 5.058594 27.835938 C 4.5625 27.835938 4.101562 27.683594 3.714844 27.429688 L 16.667969 18.902344 L 19.683594 21.980469 L 21.347656 9.324219 L 8.542969 10.613281 L 11.5625 13.695312 L 2.671875 25.890625 C 2.640625 25.730469 2.621094 25.566406 2.621094 25.398438 L 2.621094 6.722656 C 2.621094 5.386719 3.71875 4.289062 5.058594 4.289062 " fill-opacity="1" fill-rule="evenodd"/></g></svg>