<svg xmlns="http://www.w3.org/2000/svg" xmlns:xlink="http://www.w3.org/1999/xlink" width="2000" zoomAndPan="magnify" viewBox="0 0 1500 1499.999933" height="2000" preserveAspectRatio="xMidYMid meet" version="1.0"><defs><clipPath id="4bc1e9ea38"><path d="M 79.941406 79.941406 L 1420.035156 79.941406 L 1420.035156 1420.035156 L 79.941406 1420.035156 Z M 79.941406 79.941406 " clip-rule="nonzero"/></clipPath><clipPath id="11c3a9882e"><path d="M 250.960938 281.410156 L 267.203125 281.410156 L 267.203125 297.648438 L 250.960938 297.648438 Z M 250.960938 281.410156 " clip-rule="nonzero"/></clipPath><clipPath id="adefee2032"><path d="M 259.082031 281.410156 C 254.597656 281.410156 250.960938 285.046875 250.960938 289.53125 C 250.960938 294.015625 254.597656 297.648438 259.082031 297.648438 C 263.566406 297.648438 267.203125 294.015625 267.203125 289.53125 C 267.203125 285.046875 263.566406 281.410156 259.082031 281.410156 Z M 259.082031 281.410156 " clip-rule="nonzero"/></clipPath><clipPath id="0a05f78d13"><path d="M 0.960938 0.410156 L 17.203125 0.410156 L 17.203125 16.648438 L 0.960938 16.648438 Z M 0.960938 0.410156 " clip-rule="nonzero"/></clipPath><clipPath id="af51e4dfdd"><path d="M 9.082031 0.410156 C 4.597656 0.410156 0.960938 4.046875 0.960938 8.53125 C 0.960938 13.015625 4.597656 16.648438 9.082031 16.648438 C 13.566406 16.648438 17.203125 13.015625 17.203125 8.53125 C 17.203125 4.046875 13.566406 0.410156 9.082031 0.410156 Z M 9.082031 0.410156 " clip-rule="nonzero"/></clipPath><clipPath id="f6cf613c59"><rect x="0" width="18" y="0" height="17"/></clipPath></defs><g clip-path="url(#4bc1e9ea38)"><path fill="#3f7bed" d="M 218.574219 79.941406 L 1281.402344 79.941406 C 1357.652344 79.941406 1420.035156 142.320312 1420.035156 218.574219 L 1420.035156 1281.402344 C 1420.035156 1357.652344 1357.652344 1420.035156 1281.402344 1420.035156 L 218.574219 1420.035156 C 190.429688 1420.035156 164.171875 1411.53125 142.246094 1396.972656 L 879.308594 911.585938 L 1051.09375 1086.765625 L 1145.792969 366.53125 L 416.851562 440.011719 L 588.871094 615.429688 L 82.8125 1309.433594 C 80.933594 1300.382812 79.941406 1291.007812 79.941406 1281.402344 L 79.941406 218.574219 C 79.941406 142.320312 142.324219 79.941406 218.574219 79.941406 " fill-opacity="1" fill-rule="evenodd"/></g><g clip-path="url(#11c3a9882e)"><g clip-path="url(#adefee2032)"><g transform="matrix(1, 0, 0, 1, 250, 281)"><g clip-path="url(#f6cf613c59)"><g clip-path="url(#0a05f78d13)"><g clip-path="url(#af51e4dfdd)"><path fill="#3f7bed" d="M 0.960938 0.410156 L 17.203125 0.410156 L 17.203125 16.648438 L 0.960938 16.648438 Z M 0.960938 0.410156 " fill-opacity="1" fill-rule="nonzero"/></g></g></g></g></g></g></svg>