<?xml version="1.0" encoding="UTF-8"?>
<svg xmlns="http://www.w3.org/2000/svg" xmlns:xlink="http://www.w3.org/1999/xlink" width="50px" height="50px" viewBox="0 0 50 50" version="1.1">
<defs>
<clipPath id="clip1">
  <path d="M 2.664062 2.664062 L 47.335938 2.664062 L 47.335938 47.335938 L 2.664062 47.335938 Z M 2.664062 2.664062 "/>
</clipPath>
<clipPath id="clip2">
  <path d="M 8.367188 9.378906 L 8.90625 9.378906 L 8.90625 9.921875 L 8.367188 9.921875 Z M 8.367188 9.378906 "/>
</clipPath>
<clipPath id="clip3">
  <path d="M 8.636719 9.378906 C 8.488281 9.378906 8.367188 9.5 8.367188 9.652344 C 8.367188 9.800781 8.488281 9.921875 8.636719 9.921875 C 8.785156 9.921875 8.90625 9.800781 8.90625 9.652344 C 8.90625 9.5 8.785156 9.378906 8.636719 9.378906 Z M 8.636719 9.378906 "/>
</clipPath>
<clipPath id="clip4">
  <path d="M 8.636719 9.378906 C 8.488281 9.378906 8.367188 9.5 8.367188 9.652344 C 8.367188 9.800781 8.488281 9.921875 8.636719 9.921875 C 8.785156 9.921875 8.90625 9.800781 8.90625 9.652344 C 8.90625 9.5 8.785156 9.378906 8.636719 9.378906 Z M 8.636719 9.378906 "/>
</clipPath>
</defs>
<g id="surface1">
<g clip-path="url(#clip1)" clip-rule="nonzero">
<path style=" stroke:none;fill-rule:evenodd;fill:rgb(24.705882%,48.235294%,92.941177%);fill-opacity:1;" d="M 7.285156 2.664062 L 42.714844 2.664062 C 45.253906 2.664062 47.335938 4.742188 47.335938 7.285156 L 47.335938 42.714844 C 47.335938 45.253906 45.253906 47.335938 42.714844 47.335938 L 7.285156 47.335938 C 6.347656 47.335938 5.472656 47.050781 4.742188 46.566406 L 29.308594 30.386719 L 35.035156 36.226562 L 38.191406 12.21875 L 13.894531 14.667969 L 19.628906 20.515625 L 2.761719 43.648438 C 2.699219 43.347656 2.664062 43.035156 2.664062 42.714844 L 2.664062 7.285156 C 2.664062 4.742188 4.746094 2.664062 7.285156 2.664062 "/>
</g>
<g clip-path="url(#clip2)" clip-rule="nonzero">
<g clip-path="url(#clip3)" clip-rule="nonzero">
<g clip-path="url(#clip4)" clip-rule="nonzero">
<path style=" stroke:none;fill-rule:nonzero;fill:rgb(24.705882%,48.235294%,92.941177%);fill-opacity:1;" d="M 8.367188 9.378906 L 8.90625 9.378906 L 8.90625 9.921875 L 8.367188 9.921875 Z M 8.367188 9.378906 "/>
</g>
</g>
</g>
</g>
</svg>
